<svg width="111" height="111" viewBox="0 0 111 111" fill="none" xmlns="http://www.w3.org/2000/svg">
<g clip-path="url(#clip0_90_272)">
<path d="M55.5 111C86.1518 111 111 86.1518 111 55.5C111 24.8482 86.1518 0 55.5 0C24.8482 0 0 24.8482 0 55.5C0 86.1518 24.8482 111 55.5 111Z" fill="#BFDBFF"/>
<path d="M108.241 72.7817L87.2276 51.765H87.218L85.6746 50.9336L85.6714 50.9297L65.8895 40.2832V49.635L68.0196 51.765H56.5909L45.1096 40.2832L23.7815 51.765V66.9741L66.6741 109.875C86.2791 105.868 102.105 91.5186 108.241 72.7817Z" fill="#BFDBFF"/>
<path d="M87.2233 51.765L65.8902 40.2832V44.2803V49.6371H67.2821L67.699 45.7994L87.2233 62.2267V51.765Z" fill="#F2EFCE"/>
<path d="M23.7761 51.765L45.1098 40.2832V44.2803V49.6371H43.7184L43.3006 45.7994L23.7761 62.2267V51.765Z" fill="#F2EFCE"/>
<path d="M23.7761 51.7646V66.9773H27.851C28.5075 66.9773 29.1635 67.2238 29.6648 67.7248C30.1632 68.2271 30.414 68.8853 30.414 69.5368V69.6222C30.414 69.8991 30.5218 70.1839 30.737 70.397C30.9519 70.6134 31.2322 70.7179 31.5134 70.7179H48.633C49.2691 70.7179 49.9116 70.5536 50.4989 70.2095C51.0845 69.8637 51.5363 69.3798 51.8437 68.8192L53.8951 65.0818C54.2059 64.5151 54.8086 64.1316 55.5007 64.1316C56.1938 64.1316 56.7949 64.5151 57.1052 65.0818L59.1576 68.8192C59.4622 69.3798 59.9175 69.8637 60.5017 70.2095C61.0867 70.5536 61.7295 70.7179 62.3671 70.7179H79.4855C79.7659 70.7179 80.0494 70.6136 80.2619 70.397C80.4767 70.1833 80.5843 69.8993 80.5843 69.6222V69.5368C80.5843 68.8853 80.8358 68.2276 81.3353 67.7248C81.8365 67.2242 82.4912 66.9773 83.1473 66.9773H87.2237V51.7646H23.7761Z" fill="#F2F9FF"/>
<path d="M50.1482 63.5318C50.1482 64.4692 49.7924 65.406 49.0765 66.1197C48.3622 66.8401 47.4243 67.1902 46.488 67.1902H35.3585C34.4228 67.1902 33.4832 66.8401 32.7671 66.1197C32.0523 65.406 31.6959 64.4692 31.6959 63.5318V55.29H50.1486V63.5318H50.1482Z" fill="#0684BA"/>
<path d="M79.3028 63.5318C79.3028 64.4692 78.9449 65.406 78.2323 66.1197C77.5168 66.8401 76.5761 67.1902 75.6409 67.1902H64.5138C63.5742 67.1902 62.6363 66.8401 61.922 66.1197C61.2065 65.406 60.8503 64.4692 60.8503 63.5318V55.29H79.3024V63.5318H79.3028Z" fill="#FF8E31"/>
<path d="M31.6961 62.7854V55.29H34.5999L46.5018 67.1898C46.4958 67.1898 46.4919 67.1898 46.488 67.1898H36.1038L31.6961 62.7854Z" fill="#0AAAD8"/>
<path d="M60.8508 62.7854V55.29H63.7513L75.655 67.1898C75.6506 67.1898 75.6454 67.1898 75.6417 67.1898H65.2589L60.8508 62.7854Z" fill="#FFAE45"/>
</g>
<defs>
<clipPath id="clip0_90_272">
<rect width="111" height="111" fill="white"/>
</clipPath>
</defs>
</svg>
