<svg width="111" height="111" viewBox="0 0 111 111" fill="none" xmlns="http://www.w3.org/2000/svg">
<g clip-path="url(#clip0_90_147)">
<path d="M55.5 111C86.1518 111 111 86.1518 111 55.5C111 24.8482 86.1518 0 55.5 0C24.8482 0 0 24.8482 0 55.5C0 86.1518 24.8482 111 55.5 111Z" fill="#BFDBFF"/>
<path d="M110.962 57.0056L84.8023 30.8508C84.5486 30.5889 84.184 30.4229 83.7883 30.4229H27.2178C26.4169 30.4229 25.767 31.0806 25.767 31.8741V68.392C25.767 68.7421 25.894 69.0662 26.116 69.321L26.2665 69.4714L66.6744 109.873C91.4939 104.8 110.263 83.1561 110.962 57.0056Z" fill="#BFDBFF"/>
<path d="M63.2444 79.4186H47.7499L49.7185 69.8384H61.2748L63.2444 79.4186Z" fill="#E1EFFA"/>
<path d="M63.2444 79.4186L61.2748 69.8384H49.7184L59.2957 79.4186H63.2444Z" fill="#CEE2F2"/>
<path d="M67.3922 79.4204H43.6009V80.5777H67.3922V79.4204Z" fill="white"/>
<path d="M27.2149 30.4248C26.4169 30.4248 25.7687 31.078 25.7687 31.8728V68.3907C25.7687 69.1898 26.4169 69.8387 27.2149 69.8387H83.7866C84.5807 69.8387 85.2324 69.1898 85.2324 68.3907V31.8728C85.2324 31.078 84.5803 30.4248 83.7866 30.4248H27.2149Z" fill="#34495E"/>
<path d="M82.2261 33.4277H28.7739V66.8387H82.2261V33.4277Z" fill="#CEE2F2"/>
<path d="M80.2807 39.6548H30.7192V64.8906H80.2807V39.6548Z" fill="white"/>
<path d="M82.2261 33.4277H28.7739V37.7123H82.2261V33.4277Z" fill="#FF8E31"/>
<path d="M79.4871 35.6025C79.4871 35.9511 79.2024 36.2375 78.8545 36.2375H47.6739C47.3259 36.2375 47.0389 35.9511 47.0389 35.6025V35.5403C47.0389 35.1917 47.3259 34.9053 47.6739 34.9053H78.8543C79.2022 34.9053 79.4869 35.1917 79.4869 35.5403V35.6025H79.4871Z" fill="white"/>
<path d="M34.8924 36.2358C35.2602 36.2358 35.5584 35.9376 35.5584 35.5698C35.5584 35.202 35.2602 34.9038 34.8924 34.9038C34.5246 34.9038 34.2264 35.202 34.2264 35.5698C34.2264 35.9376 34.5246 36.2358 34.8924 36.2358Z" fill="white"/>
<path d="M39.4345 36.2377C39.0677 36.2377 38.7685 35.9381 38.7685 35.5706C38.7685 35.2038 39.0677 34.9053 39.4345 34.9053C39.8002 34.9053 40.0977 35.2038 40.0977 35.5706C40.0977 35.9381 39.7996 36.2377 39.4345 36.2377Z" fill="white"/>
<path d="M43.9727 36.2358C44.3405 36.2358 44.6387 35.9376 44.6387 35.5698C44.6387 35.202 44.3405 34.9038 43.9727 34.9038C43.6049 34.9038 43.3067 35.202 43.3067 35.5698C43.3067 35.9376 43.6049 36.2358 43.9727 36.2358Z" fill="white"/>
<path d="M66.9658 46.9094V45.8909L66.2159 45.6368C66.176 45.4087 66.1166 45.1861 66.0394 44.9729L66.5599 44.3757L66.0509 43.4927L65.275 43.6464C65.1989 43.5599 65.1217 43.476 65.0413 43.3934C64.9591 43.314 64.8754 43.2368 64.7887 43.1607L64.943 42.3844L64.059 41.876L63.463 42.3954C63.2499 42.3204 63.0279 42.26 62.8009 42.2172L62.5451 41.4697H61.525L61.2692 42.2172C61.0411 42.26 60.8202 42.3211 60.6065 42.3954L60.012 41.876L59.1283 42.3844L59.2821 43.1607C59.1955 43.2368 59.1099 43.3145 59.0295 43.3934C58.9484 43.4755 58.8701 43.5592 58.7943 43.6464L58.0183 43.4944L57.5093 44.3757L58.0294 44.9729C57.9533 45.1861 57.8939 45.4087 57.8529 45.6368L57.1054 45.8909V46.9094L57.8529 47.1652C57.8939 47.3954 57.9539 47.6159 58.0294 47.829L57.5093 48.4246L58.0199 49.3076L58.7947 49.1556L58.793 49.1513C58.869 49.2395 58.9473 49.3249 59.0299 49.4071C59.1121 49.4893 59.1975 49.5686 59.2857 49.643L59.1288 50.4167L60.0124 50.9268L60.6069 50.4063C60.8211 50.4824 61.0414 50.5422 61.2696 50.5845L61.5255 51.332H62.5455L62.8013 50.5845C63.0283 50.5418 63.2509 50.4824 63.4634 50.4063L64.0594 50.9268L64.9435 50.4167L64.7891 49.6419L64.7859 49.6436C64.8741 49.5686 64.9595 49.4899 65.0417 49.4077C65.1221 49.3267 65.1993 49.2419 65.2754 49.1547L66.0513 49.3085L66.5604 48.4254L66.0398 47.8299C66.1174 47.6168 66.1764 47.3959 66.2163 47.1661L66.9658 46.9094ZM62.0345 48.4384C60.9095 48.4384 59.9977 47.5249 59.9977 46.3999C59.9977 45.2767 60.9095 44.3642 62.0345 44.3642C63.1612 44.3642 64.072 45.2767 64.072 46.3999C64.072 47.5249 63.1618 48.4384 62.0345 48.4384Z" fill="#34495E"/>
<path d="M59.8517 55.9871V54.3521L58.6503 53.944C58.5854 53.5783 58.4894 53.2225 58.3671 52.8785L59.2014 51.9239L58.3838 50.5065L57.139 50.7534C57.0163 50.6136 56.8949 50.4792 56.7637 50.3483C56.6327 50.219 56.4983 50.0953 56.3596 49.9754L56.6054 48.7299L55.1869 47.9119L54.2317 48.7461C53.8887 48.6245 53.5336 48.5269 53.1677 48.4597L52.7581 47.2598H51.1216L50.7135 48.4597C50.3485 48.5269 49.992 48.6241 49.6495 48.7461L48.6956 47.9119L47.2782 48.7288L47.5258 49.9743C47.3848 50.0948 47.25 50.218 47.1201 50.3472C46.9924 50.4781 46.866 50.6125 46.7438 50.7524L45.5 50.5087L44.6825 51.9229L45.5161 52.8774C45.3951 53.2215 45.2973 53.5779 45.2318 53.943L44.0319 54.351V55.9861L45.2318 56.3967C45.2973 56.7652 45.3944 57.1171 45.5161 57.4611L44.6825 58.4146L45.5017 59.832L46.7444 59.589L46.7416 59.5795C46.8621 59.721 46.9896 59.8598 47.1206 59.9901C47.2522 60.1228 47.3885 60.2494 47.5329 60.368L47.2788 61.6089L48.6973 62.4297L49.6515 61.5933C49.994 61.7171 50.3502 61.8114 50.7155 61.8786L51.1235 63.0779H52.7601L53.1696 61.8786C53.5354 61.8114 53.8905 61.7171 54.2337 61.5933L55.1889 62.4297L56.6074 61.6089L56.3615 60.3662L56.3555 60.368C56.4953 60.2491 56.634 60.1232 56.765 59.9901C56.8955 59.8609 57.0176 59.7247 57.1403 59.5855L58.3851 59.832L59.2027 58.4146L58.3684 57.4611C58.4905 57.1171 58.5865 56.7652 58.6516 56.3967L59.8517 55.9871ZM51.9419 56.9556C50.955 56.9556 50.1564 56.1565 50.1564 55.1696C50.1564 54.1862 50.955 53.3869 51.9419 53.3869C52.9281 53.3869 53.7261 54.186 53.7261 55.1696C53.7261 56.1562 52.9281 56.9556 51.9419 56.9556Z" fill="#FF8E31"/>
<path d="M51.9419 51.3315C49.8223 51.3315 48.1018 53.052 48.1018 55.1699C48.1018 57.2911 49.8223 59.0111 51.9419 59.0111C54.0637 59.0111 55.781 57.2906 55.781 55.1699C55.7807 53.0514 54.0637 51.3315 51.9419 51.3315ZM51.9419 56.8948C50.9902 56.8948 50.2182 56.1228 50.2182 55.1699C50.2182 54.2197 50.9902 53.4477 51.9419 53.4477C52.895 53.4477 53.6642 54.2197 53.6642 55.1699C53.6635 56.1228 52.8948 56.8948 51.9419 56.8948Z" fill="#34495E"/>
</g>
<defs>
<clipPath id="clip0_90_147">
<rect width="111" height="111" fill="white"/>
</clipPath>
</defs>
</svg>
