<svg width="111" height="111" viewBox="0 0 111 111" fill="none" xmlns="http://www.w3.org/2000/svg">
<g clip-path="url(#clip0_90_181)">
<path d="M55.5 111C86.1518 111 111 86.1518 111 55.5C111 24.8482 86.1518 0 55.5 0C24.8482 0 0 24.8482 0 55.5C0 86.1518 24.8482 111 55.5 111Z" fill="#BFDBFF"/>
<path d="M110.961 57.0583L84.9716 31.0739C84.9549 31.0556 84.9456 31.0383 84.9271 31.0201L84.6351 30.7276C84.6167 30.7098 84.5985 30.701 84.5818 30.6832C84.3516 30.5234 84.0667 30.4341 83.7749 30.4341H27.2267C26.4286 30.4341 25.7815 31.0912 25.7815 31.8803V68.3872C25.7815 68.653 25.8515 68.9012 25.9857 69.1148L26.5002 69.6288L66.7327 109.861C91.5063 104.769 110.237 83.1656 110.961 57.0583Z" fill="#BFDBFF"/>
<path d="M63.2405 79.4076H47.7521L49.7213 69.8311H61.2738L63.2405 79.4076Z" fill="#CEE2F2"/>
<path d="M63.2405 79.4076L61.2737 69.8311H49.7213L59.2946 79.4076H63.2405Z" fill="#A6C8E6"/>
<path d="M67.3892 79.4097H43.6063V80.5669H67.3892V79.4097Z" fill="#F2F9FF"/>
<path d="M27.2266 30.4341C26.4297 30.4341 25.7804 31.0869 25.7804 31.8814V68.3855C25.7804 69.1824 26.4297 69.8306 27.2266 69.8306H83.7751C84.5681 69.8306 85.2202 69.1818 85.2202 68.3855V31.8816C85.2202 31.0869 84.5681 30.4343 83.7751 30.4343L27.2266 30.4341Z" fill="#34495E"/>
<path d="M82.2137 33.439H28.7839V66.8333H82.2137V33.439Z" fill="white"/>
<path d="M34.0905 36.5195H31.7516V37.3037H34.0905V36.5195Z" fill="#0684BA"/>
<path d="M34.0905 40.2539H31.7516V41.0404H34.0905V40.2539Z" fill="#0684BA"/>
<path d="M37.3582 36.5195H34.6931V37.3037H37.3582V36.5195Z" fill="#34495E"/>
<path d="M43.1319 40.2539H34.6931V41.0404H43.1319V40.2539Z" fill="#34495E"/>
<path d="M39.8052 36.5195H37.6646V37.3037H39.8052V36.5195Z" fill="#0684BA"/>
<path d="M37.8048 37.9399H34.0881V38.7258H37.8048V37.9399Z" fill="#0684BA"/>
<path d="M37.8048 44.5166H34.0881V45.3025H37.8048V44.5166Z" fill="#0684BA"/>
<path d="M37.8048 53.0244H34.0881V53.8086H37.8048V53.0244Z" fill="#0684BA"/>
<path d="M35.62 45.937H34.0881V46.7229H35.62V45.937Z" fill="#0684BA"/>
<path d="M48.4032 44.5166H38.6835V45.3025H48.4032V44.5166Z" fill="#0684BA"/>
<path d="M41.4435 48.7734H38.062V49.5582H41.4435V48.7734Z" fill="#0684BA"/>
<path d="M41.5474 51.6147H38.1658V52.3985H41.5474V51.6147Z" fill="#0684BA"/>
<path d="M41.5474 62.959H38.1658V63.7427H41.5474V62.959Z" fill="#0684BA"/>
<path d="M47.821 48.7734H42.3298V49.5582H47.821V48.7734Z" fill="#C1D354"/>
<path d="M44.7141 51.6152H42.3298V52.399H44.7141V51.6152Z" fill="#C1D354"/>
<path d="M43.6895 54.4453H40.8868V55.2305H43.6895V54.4453Z" fill="#C1D354"/>
<path d="M46.2685 60.123H40.8868V60.9096H46.2685V60.123Z" fill="#C1D354"/>
<path d="M44.6248 62.959H42.6407V63.7427H44.6248V62.959Z" fill="#C1D354"/>
<path d="M59.0908 57.2817H56.288V58.0648H59.0908V57.2817Z" fill="#C1D354"/>
<path d="M51.9324 48.7734H48.9066V49.5582H51.9324V48.7734Z" fill="#34495E"/>
<path d="M53.9406 48.7734H52.5087V49.5582H53.9406V48.7734Z" fill="#C1D354"/>
<path d="M56.493 44.5166H49.506V45.3025H56.493V44.5166Z" fill="#34495E"/>
<path d="M62.1945 44.5166H57.9142V45.3025H62.1945V44.5166Z" fill="#34495E"/>
<path d="M39.6363 41.6748H34.0881V42.4618H39.6363V41.6748Z" fill="#34495E"/>
<path d="M41.9545 43.0957H34.0881V43.8788H41.9545V43.0957Z" fill="#34495E"/>
<path d="M45.2037 45.937H36.186V46.7229H45.2037V45.937Z" fill="#34495E"/>
<path d="M45.2037 55.8662H36.186V56.6515H45.2037V55.8662Z" fill="#34495E"/>
<path d="M44.4772 57.2817H39.0443V58.0648H44.4772V57.2817Z" fill="#34495E"/>
<path d="M41.6556 61.5439H39.0443V62.3298H41.6556V61.5439Z" fill="#34495E"/>
<path d="M50.1111 61.5439H44.6276V62.3298H50.1111V61.5439Z" fill="#34495E"/>
<path d="M50.1094 62.959H46.2703V63.7427H50.1094V62.959Z" fill="#34495E"/>
<path d="M55.7444 57.2817H47.1551V58.0648H55.7444V57.2817Z" fill="#34495E"/>
<path d="M55.7444 60.123H47.1551V60.9096H55.7444V60.123Z" fill="#34495E"/>
<path d="M37.4308 47.3584H36.186V48.1436H37.4308V47.3584Z" fill="#0684BA"/>
<path d="M39.3733 50.1943H36.186V50.9802H39.3733V50.1943Z" fill="#0684BA"/>
<path d="M39.3733 54.4458H36.186V55.231H39.3733V54.4458Z" fill="#0684BA"/>
<path d="M38.326 57.2817H36.186V58.0648H38.326V57.2817Z" fill="#0684BA"/>
<path d="M39.854 60.1235H36.186V60.9101H39.854V60.1235Z" fill="#0684BA"/>
<path d="M38.1634 61.5439H36.186V62.3298H38.1634V61.5439Z" fill="#0684BA"/>
<path d="M44.0115 61.5439H42.3298V62.3298H44.0115V61.5439Z" fill="#0684BA"/>
<path d="M46.5172 57.2817H45.077V58.0648H46.5172V57.2817Z" fill="#0684BA"/>
<path d="M40.0261 47.3584H38.062V48.1436H40.0261V47.3584Z" fill="#34495E"/>
<path d="M43.6913 58.7026H38.062V59.4868H43.6913V58.7026Z" fill="#34495E"/>
<path d="M48.9844 58.7026H44.511V59.4868H48.9844V58.7026Z" fill="#34495E"/>
<path d="M59.0926 58.7026H49.2175V59.4868H59.0926V58.7026Z" fill="#34495E"/>
<path d="M41.9541 47.3584H40.3541V48.1436H41.9541V47.3584Z" fill="#C1D354"/>
<path d="M47.8211 47.3584H42.3298V48.1436H47.8211V47.3584Z" fill="#34495E"/>
<path d="M47.3211 45.9375H45.7099V46.7234H47.3211V45.9375Z" fill="#C1D354"/>
<path d="M51.9324 45.9375H48.9066V46.7234H51.9324V45.9375Z" fill="#FF8E31"/>
<path d="M50.6633 43.0957H42.7961V43.8788H50.6633V43.0957Z" fill="#34495E"/>
<path d="M61.4058 43.0957H58.9577V43.8788H61.4058V43.0957Z" fill="#FF8E31"/>
<path d="M56.119 43.0957H51.2044V43.8788H56.119V43.0957Z" fill="#FF8E31"/>
<path d="M58.1022 43.0957H56.4933V43.8788H58.1022V43.0957Z" fill="#C1D354"/>
<path d="M63.5557 43.0957H61.949V43.8788H63.5557V43.0957Z" fill="#C1D354"/>
<path d="M49.9689 41.6748H41.4474V42.4618H49.9689V41.6748Z" fill="#34495E"/>
<path d="M41.0555 41.6748H40.0266V42.4618H41.0555V41.6748Z" fill="#0684BA"/>
<path d="M39.8056 37.9399H38.2922V38.7258H39.8056V37.9399Z" fill="#34495E"/>
<path d="M41.3415 37.9399H40.1265V38.7258H41.3415V37.9399Z" fill="#C1D354"/>
<path d="M72.9259 55.4728V54.8855H72.6335V54.5903H72.3382V54.2956H72.0418V54.0003H71.7487V53.7094H71.4506V53.4087H71.1599V53.1156H70.8646V52.8199H70.5689V52.5279H70.2719V52.2311H69.9783V51.9373H69.6813V51.6416H69.3871V56.6548H69.9783V56.358H70.2719V56.0645H70.5689V55.7668H70.8646V56.358H71.1599V56.9479H71.4506V57.2439H72.0418V56.9479H72.3382V56.358H72.0418V55.7668H71.7487V55.4728H72.9259Z" fill="#34495E"/>
</g>
<defs>
<clipPath id="clip0_90_181">
<rect width="111" height="111" fill="white"/>
</clipPath>
</defs>
</svg>
