<svg width="111" height="111" viewBox="0 0 111 111" fill="none" xmlns="http://www.w3.org/2000/svg">
<g clip-path="url(#clip0_88_30)">
<path d="M111 55.501C111 86.1519 86.152 111 55.5 111C24.8473 111 0 86.1519 0 55.501C0 24.8483 24.8473 0.000976562 55.5 0.000976562C86.152 0.000976563 111 24.8483 111 55.501Z" fill="#BFDBFF"/>
<path d="M109.855 66.7586L85.5099 42.4186C85.4943 42.3941 85.4704 42.3791 85.4461 42.3548L84.6143 41.5217C84.5909 41.4989 84.5744 41.4744 84.5516 41.4595C82.0297 39.1679 78.6843 37.7715 75.0124 37.7715C72.153 37.7715 69.4895 38.6212 67.2591 40.0798L55.8972 28.7179C55.7862 28.6069 55.6353 28.5503 55.4926 28.5503C55.3506 28.5503 55.2069 28.6069 55.0881 28.7179C54.9771 28.8278 54.9216 28.9709 54.9216 29.1213V39.8966H54.7156C54.4615 39.8966 54.1994 39.9909 54.0102 40.1908C53.8192 40.3811 53.7171 40.6415 53.7171 40.8878V43.4486H47.3424C44.7495 39.9998 40.6275 37.7709 35.9883 37.7709C35.5525 37.7709 35.1237 37.798 34.6986 37.8364C34.5769 37.847 34.457 37.8602 34.3372 37.8758C33.9935 37.9153 33.6545 37.9673 33.3193 38.0313C33.235 38.0462 33.1485 38.0584 33.0652 38.0768C32.7112 38.1501 32.3608 38.2355 32.0163 38.3343L32.0014 38.351C26.1106 40.0743 21.8054 45.5084 21.8054 51.9552C21.8054 52.5978 21.8449 53.2328 21.9325 53.8511C21.9325 53.8661 21.9403 53.8906 21.9403 53.906C21.9648 54.1041 21.9958 54.3034 22.0352 54.5015C22.0352 54.5243 22.043 54.541 22.043 54.5637C22.0836 54.7541 22.123 54.9444 22.1623 55.1348C22.1701 55.1515 22.1701 55.1593 22.1701 55.1669C22.2095 55.3572 22.2655 55.5398 22.3132 55.7301C22.3132 55.7451 22.321 55.7622 22.3281 55.785V55.8017C22.432 56.1581 22.543 56.4987 22.6689 56.8479V56.8557L27.3064 71.1986C27.6323 72.1976 28.1717 73.1333 28.9326 73.9174C28.9875 73.9812 29.0514 74.0451 29.1152 74.1L65.1596 110.144C87.5307 106.217 105.291 88.9048 109.855 66.7586Z" fill="#BFDBFF"/>
<path d="M68.8989 43.4453H42.0868V60.4678H68.8989V43.4453Z" fill="#34495E"/>
<path d="M35.9896 37.7715C28.1541 37.7715 21.8033 44.1223 21.8033 51.9578C21.8033 52.5989 21.8477 53.2321 21.9299 53.852C21.9316 53.8702 21.9355 53.8886 21.937 53.9068C21.9641 54.106 21.9953 54.3025 22.032 54.5006C22.0348 54.5223 22.0398 54.5416 22.0426 54.5644C22.0792 54.758 22.118 54.9496 22.1647 55.1389C22.1657 55.1495 22.1675 55.1588 22.169 55.1677C22.2117 55.3563 22.2605 55.5423 22.3121 55.7283C22.3149 55.7465 22.321 55.765 22.3238 55.7849L22.3299 55.8016C22.4298 56.1552 22.5412 56.5036 22.6678 56.8461L22.6696 56.8557L27.3071 71.1968C27.7517 72.5761 28.622 73.8324 29.8835 74.7505C31.144 75.6669 32.6073 76.1085 34.0555 76.1085H35.9891C37.8024 76.1085 39.6183 75.4159 41.0047 74.0316C42.3879 72.6448 43.0817 70.8293 43.0817 69.0149V64.2441C47.3203 61.7911 50.1724 57.2084 50.1724 51.9587C50.1726 44.1223 43.8233 37.7715 35.9896 37.7715Z" fill="#0575A5"/>
<path d="M75.0089 37.7715C82.845 37.7715 89.1963 44.1223 89.1963 51.9578C89.1963 52.5989 89.1519 53.2321 89.0693 53.852C89.0649 53.8702 89.0632 53.8886 89.0604 53.9068C89.0344 54.106 89.0016 54.3025 88.9689 54.5006C88.9632 54.5223 88.9572 54.5416 88.9539 54.5644C88.9195 54.758 88.8789 54.9496 88.8373 55.1389C88.8334 55.1495 88.8316 55.1588 88.8295 55.1677C88.7861 55.3563 88.7391 55.5423 88.6868 55.7283C88.6808 55.7465 88.6773 55.765 88.673 55.7849L88.6673 55.8016C88.568 56.1552 88.4549 56.5036 88.3311 56.8461L88.3272 56.8557L83.6886 71.1968C83.2452 72.5761 82.3748 73.8324 81.1135 74.7505C79.8537 75.6669 78.3911 76.1085 76.941 76.1085H75.0085C73.193 76.1085 71.3789 75.4159 69.9929 74.0316C68.6093 72.6448 67.9177 70.8293 67.9177 69.0149V64.2441C63.6758 61.7911 60.8247 57.2084 60.8247 51.9587C60.8252 44.1223 67.176 37.7715 75.0089 37.7715Z" fill="#0575A5"/>
<path d="M35.641 51.958L33.512 54.0831H28.548V49.8291H33.512L35.641 51.958Z" fill="white"/>
<path d="M36.3497 51.958L38.4782 54.0831H43.4433V49.8291H38.4782L36.3497 51.958Z" fill="white"/>
<path d="M35.9957 51.6018L33.8667 49.4744V44.5093H38.1235V49.4744L35.9957 51.6018Z" fill="white"/>
<path d="M35.9957 52.311L33.8667 54.4395V59.4033H38.1235V54.4395L35.9957 52.311Z" fill="white"/>
<path d="M77.1322 46.636C77.1322 47.8115 76.1781 48.7645 75.0022 48.7645C73.8295 48.7645 72.8761 47.811 72.8761 46.636C72.8761 45.4605 73.8295 44.5088 75.0022 44.5088C76.1781 44.5092 77.1322 45.4605 77.1322 46.636Z" fill="white"/>
<path d="M69.6846 49.8291C70.8583 49.8291 71.8124 50.7804 71.8124 51.9576C71.8124 53.1314 70.8583 54.0833 69.6846 54.0833C68.5091 54.0833 67.5561 53.1316 67.5561 51.9576C67.5563 50.7808 68.5087 49.8291 69.6846 49.8291Z" fill="white"/>
<path d="M72.8758 57.2761C72.8758 56.1007 73.8293 55.1489 75.002 55.1489C76.1781 55.1489 77.132 56.1002 77.132 57.2761C77.132 58.4499 76.1779 59.4033 75.002 59.4033C73.8289 59.4033 72.8758 58.4499 72.8758 57.2761Z" fill="white"/>
<path d="M80.323 54.0828C79.1469 54.0828 78.1969 53.1311 78.1969 51.9571C78.1969 50.7799 79.1471 49.8286 80.323 49.8286C81.4981 49.8286 82.452 50.7799 82.452 51.9571C82.452 53.1311 81.4978 54.0828 80.323 54.0828Z" fill="white"/>
<path d="M35.9957 62.8796C29.9717 62.8796 25.0739 57.9799 25.0739 51.9582C25.0739 45.9332 29.9711 41.0347 35.9957 41.0347C42.0174 41.0347 46.9185 45.9332 46.9185 51.9582C46.9185 57.9799 42.0174 62.8796 35.9957 62.8796ZM35.9957 41.6014C30.2859 41.6014 25.6388 46.2467 25.6388 51.9582C25.6388 57.6665 30.2859 62.3118 35.9957 62.3118C41.705 62.3118 46.3503 57.6665 46.3503 51.9582C46.3503 46.2467 41.705 41.6014 35.9957 41.6014Z" fill="#34495E"/>
<path d="M75.0022 62.8796C68.9804 62.8796 64.0797 57.9799 64.0797 51.9582C64.0797 45.9332 68.9804 41.0347 75.0022 41.0347C81.0261 41.0347 85.9261 45.9332 85.9261 51.9582C85.9257 57.9799 81.0261 62.8796 75.0022 62.8796ZM75.0022 41.6014C69.2952 41.6014 64.6482 46.2467 64.6482 51.9582C64.6482 57.6665 69.2952 62.3118 75.0022 62.3118C80.7137 62.3118 85.359 57.6665 85.359 51.9582C85.359 46.2467 80.7137 41.6014 75.0022 41.6014Z" fill="#34495E"/>
<path d="M57.9765 50.0413C57.9765 50.4309 57.6567 50.7506 57.2656 50.7506H53.7186C53.3294 50.7506 53.011 50.4309 53.011 50.0413C53.011 49.6517 53.3301 49.333 53.7186 49.333H57.2656C57.6567 49.333 57.9765 49.6511 57.9765 50.0413Z" fill="white"/>
<path d="M57.9765 53.872C57.9765 54.2615 57.6567 54.5802 57.2656 54.5802H53.7186C53.3294 54.5802 53.011 54.2618 53.011 53.872C53.011 53.4824 53.3301 53.1626 53.7186 53.1626H57.2656C57.6567 53.1626 57.9765 53.4824 57.9765 53.872Z" fill="white"/>
<path d="M53.7184 43.4448H57.2654V40.8912C57.2654 40.6386 57.1689 40.3828 56.9757 40.1892C56.7837 39.996 56.5278 39.8984 56.2737 39.8984H54.7148C54.4583 39.8984 54.2042 39.9962 54.0104 40.1892C53.8161 40.3828 53.719 40.6388 53.719 40.8912V43.4448H53.7184Z" fill="#283A4D"/>
<path d="M55.8941 28.7169C55.7831 28.6059 55.6383 28.5493 55.4924 28.5493C55.3476 28.5493 55.2032 28.6059 55.0918 28.7169C54.9801 28.8279 54.9259 28.9727 54.9259 29.1186V39.8988H56.0604V29.1186C56.0606 28.9727 56.0062 28.8279 55.8941 28.7169Z" fill="#34495E"/>
</g>
<defs>
<clipPath id="clip0_88_30">
<rect width="111" height="111" fill="white"/>
</clipPath>
</defs>
</svg>
