<svg width="111" height="111" viewBox="0 0 111 111" fill="none" xmlns="http://www.w3.org/2000/svg">
<g clip-path="url(#clip0_88_118)">
<path d="M55.5 111C86.1518 111 111 86.1518 111 55.5C111 24.8482 86.1518 0 55.5 0C24.8482 0 0 24.8482 0 55.5C0 86.1518 24.8482 111 55.5 111Z" fill="#BFDBFF"/>
<path opacity="0.1" d="M111 55.5C111 53.1834 110.841 50.9048 110.566 48.6625L86.5453 24.6421L86.5442 24.6441C86.016 24.0721 85.2786 23.7056 84.441 23.7056H26.559C24.9865 23.7056 23.7031 24.9774 23.7031 26.5614V84.4432C23.7031 85.2411 24.0385 85.9579 24.5588 86.4782L48.6438 110.564C50.8919 110.841 53.1767 111 55.5 111C86.1519 111 111 86.1521 111 55.5Z" fill="#BFDBFF"/>
<path d="M84.4419 23.7031H26.5581C24.9813 23.7031 23.7031 24.9813 23.7031 26.5581V84.4417C23.7031 86.0185 24.9813 87.2966 26.5581 87.2966H84.4417C86.0182 87.2966 87.2966 86.0185 87.2966 84.4417V26.5581C87.2969 24.9813 86.0185 23.7031 84.4419 23.7031Z" fill="#64798A"/>
<path d="M82.6719 35.5234H28.3281V82.6718H82.6719V35.5234Z" fill="#EBF0F3"/>
<path d="M67.1863 27.8076H28.3281V31.0948H67.1863V27.8076Z" fill="#EBF0F3"/>
<path d="M82.6719 80.9341H28.3281V82.6718H82.6719V80.9341Z" fill="#D5D6DB"/>
<path d="M70.774 31.0915C71.6815 31.0915 72.4171 30.3558 72.4171 29.4483C72.4171 28.5408 71.6815 27.8052 70.774 27.8052C69.8665 27.8052 69.1309 28.5408 69.1309 29.4483C69.1309 30.3558 69.8665 31.0915 70.774 31.0915Z" fill="#FCD462"/>
<path d="M75.9078 31.0915C76.8153 31.0915 77.551 30.3558 77.551 29.4483C77.551 28.5408 76.8153 27.8052 75.9078 27.8052C75.0003 27.8052 74.2647 28.5408 74.2647 29.4483C74.2647 30.3558 75.0003 31.0915 75.9078 31.0915Z" fill="#44C4A1"/>
<path d="M81.0301 31.0915C81.9376 31.0915 82.6732 30.3558 82.6732 29.4483C82.6732 28.5408 81.9376 27.8052 81.0301 27.8052C80.1226 27.8052 79.387 28.5408 79.387 29.4483C79.387 30.3558 80.1226 31.0915 81.0301 31.0915Z" fill="#E56353"/>
<path d="M42.8513 54.7773V76.7791H50.0663V59.4091H60.9337V76.7791H68.1487V54.7773H42.8513Z" fill="#FCD462"/>
<path d="M60.9332 59.4082H50.0656V76.775H60.9332V59.4082Z" fill="#DC8744"/>
<path d="M74.2593 54.7775L55.4998 41.416L36.7408 54.7775H42.8513H68.1487H74.2593Z" fill="#E56353"/>
</g>
<defs>
<clipPath id="clip0_88_118">
<rect width="111" height="111" fill="white"/>
</clipPath>
</defs>
</svg>
