<svg width="111" height="111" viewBox="0 0 111 111" fill="none" xmlns="http://www.w3.org/2000/svg">
<g clip-path="url(#clip0_90_304)">
<path d="M55.5 111C86.1518 111 111 86.1518 111 55.5C111 24.8482 86.1518 0 55.5 0C24.8482 0 0 24.8482 0 55.5C0 86.1518 24.8482 111 55.5 111Z" fill="#BFDBFF"/>
<path d="M32.3053 34.4331V73.8633H84.0385C87.2618 73.8633 89.8736 71.2508 89.8736 68.0275V34.4338H32.3053V34.4331Z" fill="white"/>
<path d="M65.846 48.0884H65.2322V50.7595H65.846V48.0884Z" fill="#D9D8D7"/>
<path d="M72.9077 54.4614H69.2211V55.0752H72.9077V54.4614Z" fill="#D9D8D7"/>
<path d="M76.8972 58.7729H76.2821V61.4441H76.8972V58.7729Z" fill="#D9D8D7"/>
<path d="M65.846 58.7729H65.2322V61.4441H65.846V58.7729Z" fill="#D9D8D7"/>
<path d="M51.0012 48.0884H50.3868V50.7595H51.0012V48.0884Z" fill="#D9D8D7"/>
<path d="M43.7461 42.7466H43.1324V45.4177H43.7461V42.7466Z" fill="#D9D8D7"/>
<path d="M51.0012 56.1016H50.3868V58.7727H51.0012V56.1016Z" fill="#D9D8D7"/>
<path d="M47.0083 62.4751H43.4333V63.0888H47.0083V62.4751Z" fill="#CCCBCA"/>
<path d="M76.59 45.417H39.7523V48.0881H76.59V45.417Z" fill="#16C6CC"/>
<path d="M75.6684 46.4458H70.1448V47.0596H75.6684V46.4458Z" fill="white"/>
<path d="M69.2239 45.417H61.8593V48.0881H69.2239V45.417Z" fill="#242D3C"/>
<path d="M68.298 46.4458H62.7759V47.0596H68.298V46.4458Z" fill="white"/>
<path d="M60.9284 46.4458H55.407V47.0596H60.9284V46.4458Z" fill="white"/>
<path d="M53.5614 46.4458H48.0379V47.0596H53.5614V46.4458Z" fill="white"/>
<path d="M46.199 46.4458H40.6754V47.0596H46.199V46.4458Z" fill="white"/>
<path d="M69.2239 50.7612H61.8593V58.774H69.2239V50.7612Z" fill="#16C6CC"/>
<path d="M54.3779 50.7612H47.0139V56.1029H54.3779V50.7612Z" fill="#FF6D3B"/>
<path d="M43.4353 61.4438H36.0713V64.1144H43.4353V61.4438Z" fill="#FF6D3B"/>
<path d="M80.2729 61.4438H72.909V66.7862H80.2729V61.4438Z" fill="#FF6D3B"/>
<path d="M80.2729 50.7612H72.909V58.774H80.2729V50.7612Z" fill="#242D3C"/>
<path d="M69.2239 61.4438H61.8593V64.1144H69.2239V61.4438Z" fill="#16C6CC"/>
<path d="M47.1162 40.0752H39.7523V42.7463H47.1162V40.0752Z" fill="#242D3C"/>
<path d="M54.3779 58.7725H47.0139V66.7859H54.3779V58.7725Z" fill="#242D3C"/>
<path d="M46.199 41.106H40.6754V41.7197H46.199V41.106Z" fill="#3E4959"/>
<path d="M42.5165 62.4751H36.9923V63.0888H42.5165V62.4751Z" fill="#E64717"/>
<path d="M53.4556 51.7905H47.9321V52.4036H53.4556V51.7905Z" fill="#E64717"/>
<path d="M52.0282 54.4619H49.3577V55.0757H52.0282V54.4619Z" fill="#E64717"/>
<path d="M79.3479 62.4751H73.8258V63.0888H79.3479V62.4751Z" fill="#E64717"/>
<path d="M77.0936 65.1465H73.8258V65.7602H77.0936V65.1465Z" fill="#E64717"/>
<path d="M53.4556 59.8037H47.9321V60.4175H53.4556V59.8037Z" fill="#3E4959"/>
<path d="M53.4563 62.4751H50.3868V63.0888H53.4563V62.4751Z" fill="#3E4959"/>
<path d="M49.4674 62.4751H47.9321V63.0888H49.4674V62.4751Z" fill="#3E4959"/>
<path d="M51.9187 65.146H50.5087V65.7598H51.9187V65.146Z" fill="#3E4959"/>
<path d="M50.1098 65.146H47.9321V65.7598H50.1098V65.146Z" fill="#3E4959"/>
<path d="M68.2995 62.4751H62.7759V63.0888H68.2995V62.4751Z" fill="white"/>
<path d="M68.3023 51.7905H65.5401V52.4036H68.3023V51.7905Z" fill="white"/>
<path d="M64.703 51.7905H62.7759V52.4036H64.703V51.7905Z" fill="white"/>
<path d="M68.2995 54.4619H62.7759V55.0757H68.2995V54.4619Z" fill="white"/>
<path d="M66.6796 57.1328H62.7759V57.7459H66.6796V57.1328Z" fill="white"/>
<path d="M79.3479 51.7905H73.8258V52.4036H79.3479V51.7905Z" fill="#3E4959"/>
<path d="M77.1931 54.4619H73.8258V55.0757H77.1931V54.4619Z" fill="#3E4959"/>
<path d="M79.347 54.4619H77.9077V55.0757H79.347V54.4619Z" fill="#3E4959"/>
<path d="M76.2806 57.1328H73.8258V57.7459H76.2806V57.1328Z" fill="#3E4959"/>
<path d="M84.0391 28.5972V62.1901C87.2618 62.1901 89.8742 64.804 89.8742 68.0264V34.4329C89.8742 31.2102 87.2618 28.5972 84.0391 28.5972Z" fill="#242D3C"/>
<path d="M35.7563 82.4026L32.3053 80.6782L35.7563 78.9531V82.4026Z" fill="white"/>
<path d="M89.8742 78.9531H35.7563V82.4028H89.8742V78.9531Z" fill="#FFB733"/>
<path d="M89.8742 78.9531H35.7563V80.6782H89.8742V78.9531Z" fill="#FFD55C"/>
<path d="M33.6566 81.3544L32.3053 80.6785L33.6566 80.001V81.3544Z" fill="#242D3C"/>
<path d="M86.9817 78.9531H85.7635V82.4028H86.9817V78.9531Z" fill="white"/>
<path d="M89.8742 78.9536H86.9811V82.4033H89.8742V78.9536Z" fill="#242D3C"/>
<path d="M27.5221 34.4316H21.1258V82.4016H27.5221V34.4316Z" fill="#242D3C"/>
<path d="M22.9003 80.5645H21.1258V81.0464H22.9003V80.5645Z" fill="white"/>
<path d="M22.9003 77.3633H21.1258V77.8452H22.9003V77.3633Z" fill="white"/>
<path d="M22.9003 74.1694H21.1264V74.6499H22.9003V74.1694Z" fill="white"/>
<path d="M22.9003 70.9688H21.1258V71.4492H22.9003V70.9688Z" fill="white"/>
<path d="M22.9009 67.7744H21.1264V68.2564H22.9009V67.7744Z" fill="white"/>
<path d="M22.8996 64.5732H21.1258V65.0537H22.8996V64.5732Z" fill="white"/>
<path d="M22.9011 61.3721H21.1258V61.8534H22.9011V61.3721Z" fill="white"/>
<path d="M22.9003 58.1782H21.1258V58.6602H22.9003V58.1782Z" fill="white"/>
<path d="M22.8996 54.9775H21.1258V55.4588H22.8996V54.9775Z" fill="white"/>
<path d="M22.9003 51.7832H21.1258V52.2651H22.9003V51.7832Z" fill="white"/>
<path d="M22.9009 48.5835H21.1264V49.0648H22.9009V48.5835Z" fill="white"/>
<path d="M22.061 43.7842H21.1258V44.2655H22.061V43.7842Z" fill="white"/>
<path d="M22.061 40.5884H21.1258V41.0703H22.061V40.5884Z" fill="white"/>
<path d="M22.0617 37.3892H21.1258V37.8711H22.0617V37.3892Z" fill="white"/>
<path d="M22.0617 78.9678H21.1264V79.4482H22.0617V78.9678Z" fill="white"/>
<path d="M22.061 75.7666H21.1258V76.2485H22.061V75.7666Z" fill="white"/>
<path d="M22.0617 72.5654H21.1264V73.0467H22.0617V72.5654Z" fill="white"/>
<path d="M22.061 69.3716H21.1264V69.8529H22.061V69.3716Z" fill="white"/>
<path d="M22.0604 66.1704H21.1258V66.6517H22.0604V66.1704Z" fill="white"/>
<path d="M22.0617 62.9766H21.1258V63.4579H22.0617V62.9766Z" fill="white"/>
<path d="M22.0602 59.7754H21.1264V60.2567H22.0602V59.7754Z" fill="white"/>
<path d="M22.0602 56.5815H21.1264V57.0628H22.0602V56.5815Z" fill="white"/>
<path d="M22.061 53.3804H21.1264V53.8617H22.061V53.3804Z" fill="white"/>
<path d="M22.0604 50.1865H21.1258V50.6669H22.0604V50.1865Z" fill="white"/>
<path d="M22.0604 46.9854H21.1258V47.4666H22.0604V46.9854Z" fill="white"/>
<path d="M22.9018 45.3882H21.1264V45.8686H22.9018V45.3882Z" fill="white"/>
<path d="M22.9011 42.187H21.1258V42.6683H22.9011V42.187Z" fill="white"/>
<path d="M22.9003 38.9932H21.1264V39.4736H22.9003V38.9932Z" fill="white"/>
<path d="M22.9003 35.7915H21.1264V36.2728H22.9003V35.7915Z" fill="white"/>
</g>
<defs>
<clipPath id="clip0_90_304">
<rect width="111" height="111" fill="white"/>
</clipPath>
</defs>
</svg>
