<svg width="100" height="100" viewBox="0 0 100 100" fill="none" xmlns="http://www.w3.org/2000/svg">
<path d="M96.875 50.9063C96.8718 48.8698 96.4641 46.8542 95.6755 44.9766C94.8869 43.099 93.7332 41.3968 92.2813 39.9688C91.9479 39.6397 91.715 39.2225 91.6099 38.766C91.5047 38.3095 91.5317 37.8324 91.6875 37.3907C92.1497 36.0139 92.3289 34.5579 92.2145 33.1102C92.1 31.6624 91.6943 30.2527 91.0216 28.9657C90.3488 27.6786 89.423 26.5407 88.2997 25.6203C87.1763 24.6999 85.8786 24.0159 84.4844 23.6094C84.21 20.9489 82.9592 18.4845 80.9737 16.6924C78.9883 14.9002 76.409 13.9076 73.7344 13.9063C73.625 13.9063 73.5313 13.5938 73.4219 13.5938C72.2094 11.8651 70.6109 10.4426 68.7531 9.43912C66.8953 8.43562 64.8292 7.87871 62.7188 7.81253H60.625C60.248 7.81141 59.8716 7.84277 59.5 7.90628C57.7303 8.18121 56.1166 9.07777 54.9482 10.4351C53.7799 11.7924 53.1335 13.5217 53.125 15.3125V84.6875C53.1231 86.5335 53.7978 88.3161 55.0215 89.6982C56.2452 91.0802 57.933 91.9659 59.7656 92.1875C60.0519 92.2035 60.3388 92.2035 60.625 92.1875H63.6094C65.2353 92.1326 66.8319 91.7387 68.2969 91.0313L68.7188 90.8438H68.9688C71.3257 91.3962 73.8028 91.0832 75.9482 89.9617C78.0936 88.8402 79.7645 86.985 80.6563 84.7344H81.2813C83.2139 84.9077 85.1557 84.5247 86.8778 83.6305C88.5998 82.7362 90.0301 81.3681 91 79.6875C91.6947 78.4309 92.1101 77.0391 92.2179 75.6073C92.3258 74.1755 92.1236 72.7372 91.625 71.3907C92.5483 70.8346 93.3439 70.0899 93.9595 69.2052C94.5752 68.3205 94.9971 67.3158 95.1977 66.2568C95.3983 65.1977 95.3731 64.1083 95.1236 63.0597C94.8741 62.0112 94.406 61.0271 93.75 60.1719C95.7722 57.5057 96.8694 54.2526 96.875 50.9063Z" fill="#E37CFF"/>
<path d="M92.1875 50.9063C92.1843 48.8698 91.7766 46.8542 90.988 44.9766C90.1994 43.099 89.0457 41.3968 87.5938 39.9688C87.2604 39.6396 87.0275 39.2225 86.9224 38.7659C86.8172 38.3094 86.8442 37.8324 87 37.3906C87.4622 36.0139 87.6414 34.5579 87.527 33.1102C87.4125 31.6624 87.0068 30.2527 86.334 28.9656C85.6613 27.6786 84.7355 26.5407 83.6122 25.6203C82.4888 24.6998 81.1911 24.0159 79.7969 23.6094C79.5225 20.9488 78.2717 18.4844 76.2862 16.6923C74.3008 14.9002 71.7215 13.9076 69.0469 13.9062C68.9375 13.9062 68.8438 13.5937 68.7344 13.5937C67.6536 12.0794 66.279 10.7982 64.6925 9.8264C63.106 8.85463 61.3401 8.21223 59.5 7.9375C57.7356 8.21156 56.126 9.10359 54.9583 10.4544C53.7906 11.8053 53.1409 13.527 53.125 15.3125V84.6875C53.1323 86.4574 53.7626 88.1683 54.9056 89.5198C56.0485 90.8713 57.6308 91.777 59.375 92.0781H59.7656C61.258 91.9154 62.7113 91.4979 64.0625 90.8437C64.9237 91.0727 65.8121 91.1831 66.7031 91.1719C67.227 91.1693 67.7497 91.1223 68.2656 91.0313C68.4851 90.9684 68.7101 90.9266 68.9375 90.9062C71.2041 91.195 73.5015 90.7062 75.4542 89.5199C77.407 88.3335 78.8994 86.5197 79.6875 84.375C85.0938 84.375 85.5937 83.1562 87.5 79.6875C89.0625 76.8125 87.8437 73.8594 86.9375 71.3906C87.8608 70.8346 88.6564 70.0898 89.272 69.2052C89.8877 68.3205 90.3096 67.3157 90.5102 66.2567C90.7108 65.1977 90.6855 64.1083 90.4361 63.0597C90.1866 62.0112 89.7185 61.0271 89.0625 60.1719C91.0847 57.5057 92.1819 54.2526 92.1875 50.9063Z" fill="#FF001A"/>
<path d="M56.25 60.9375V90.625C54.3594 90.2969 55.8125 90.7187 54.6875 89.25V60.9375H56.25Z" fill="#B40E0E"/>
<path d="M67.1875 34.375L65.9531 35.7656L61.9062 37.7969L56.25 39.0625H53.125V34.375H67.1875Z" fill="#B40E0E"/>
<path d="M40.8593 7.81256C40.6255 7.78937 40.39 7.78937 40.1562 7.81256H38.0624C35.9546 7.87517 33.8903 8.42728 32.0327 9.42524C30.1751 10.4232 28.5751 11.8396 27.3593 13.5626C27.2499 13.5626 27.1562 13.7188 27.0468 13.7188C24.3777 13.748 21.8113 14.7522 19.8312 16.5423C17.8512 18.3324 16.5941 20.7849 16.2968 23.4376C14.7697 23.8917 13.3612 24.6762 12.1712 25.7356C10.9813 26.795 10.039 28.1032 9.4112 29.5675C8.78343 31.0318 8.48555 32.6164 8.53868 34.2087C8.59182 35.801 8.99468 37.3621 9.71868 38.7813C6.56053 41.2817 4.50853 44.9206 4.00315 48.9169C3.49777 52.9132 4.57929 56.9484 7.01555 60.1563C6.36557 61.0117 5.90289 61.9943 5.65758 63.0403C5.41228 64.0862 5.38985 65.1721 5.59175 66.2273C5.79365 67.2825 6.21536 68.2834 6.82947 69.1649C7.44357 70.0464 8.23632 70.7888 9.15618 71.3438C8.74942 72.4554 8.53797 73.6289 8.53118 74.8126C8.53531 77.4717 9.5935 80.0208 11.4738 81.9012C13.3542 83.7815 15.9032 84.8397 18.5624 84.8438C19.0858 84.845 19.6084 84.8032 20.1249 84.7188C20.8803 86.5808 22.1783 88.1725 23.8502 89.2871C25.5221 90.4017 27.4906 90.9877 29.4999 90.9688C30.3042 91.0143 31.111 90.9723 31.9062 90.8438H32.1406L32.3906 90.9532C33.9243 91.7112 35.6025 92.1321 37.3124 92.1876H40.6249C42.2733 92.0064 43.8046 91.2484 44.9482 90.0475C46.0919 88.8467 46.7743 87.2803 46.8749 85.6251V14.6563C46.7919 13.004 46.1523 11.4284 45.0601 10.1858C43.9679 8.94322 42.4873 8.10678 40.8593 7.81256Z" fill="#B0B2FF"/>
<path d="M40.8594 7.8125C38.9442 8.04408 37.099 8.67563 35.4436 9.6662C33.7881 10.6568 32.3594 11.9842 31.25 13.5625C31.1406 13.5625 31.0469 13.7187 30.9375 13.7187C28.2711 13.7517 25.7085 14.7576 23.7317 16.5474C21.7549 18.3371 20.5001 20.7874 20.2031 23.4375C18.676 23.8916 17.2675 24.6762 16.0776 25.7356C14.8876 26.7949 13.9453 28.1032 13.3175 29.5675C12.6898 31.0318 12.3919 32.6163 12.445 34.2086C12.4981 35.8009 12.901 37.3621 13.625 38.7812C10.4692 41.2839 8.42029 44.9239 7.91784 48.9201C7.4154 52.9163 8.4995 56.9503 10.9375 60.1562C10.2875 61.0116 9.82483 61.9943 9.57953 63.0402C9.33423 64.0862 9.3118 65.172 9.5137 66.2272C9.7156 67.2824 10.1373 68.2833 10.7514 69.1648C11.3655 70.0463 12.1583 70.7887 13.0781 71.3437C12.6873 72.4581 12.4918 73.6316 12.5 74.8125C12.5 80.3438 14.7813 84.375 20.3125 84.375C20.8281 84.375 21.375 86.0156 21.875 85.9375C23.1719 89.1719 28.125 90.375 31.7656 90.8906C31.9267 90.9069 32.089 90.9069 32.25 90.8906C32.5881 90.9144 32.9275 90.9144 33.2656 90.8906C34.1542 90.9969 35.0532 90.9811 35.9375 90.8437C37.4001 91.5862 38.9912 92.0423 40.625 92.1875C42.2734 92.0063 43.8046 91.2483 44.9483 90.0475C46.092 88.8467 46.7744 87.2802 46.875 85.625V14.6563C46.792 13.0039 46.1524 11.4283 45.0602 10.1858C43.9679 8.94317 42.4874 8.10673 40.8594 7.8125Z" fill="#328DF0"/>
<path d="M40.8594 7.8125C38.9429 8.04594 37.0969 8.6799 35.4414 9.67321C33.7859 10.6665 32.3579 11.997 31.25 13.5781C31.1406 13.5781 31.0469 13.7344 30.9375 13.7344C28.2735 13.7669 25.7129 14.7706 23.7364 16.5572C21.76 18.3437 20.5036 20.7903 20.2031 23.4375C18.676 23.8916 17.2675 24.6762 16.0776 25.7356C14.8876 26.7949 13.9453 28.1032 13.3175 29.5675C12.6898 31.0318 12.3919 32.6163 12.445 34.2086C12.4981 35.8009 12.901 37.3621 13.625 38.7812C10.4648 41.2843 8.41281 44.9274 7.91025 48.9274C7.4077 52.9274 8.49467 56.9649 10.9375 60.1719C10.2875 61.0273 9.82484 62.0099 9.57953 63.0558C9.33423 64.1018 9.3118 65.1877 9.5137 66.2428C9.7156 67.298 10.1373 68.2989 10.7514 69.1804C11.3655 70.0619 12.1583 70.8043 13.0781 71.3594C12.6873 72.4738 12.4918 73.6472 12.5 74.8281C12.5 80.3594 14.7813 84.375 20.3125 84.375C20.8281 84.375 21.375 86.0156 21.875 85.9375C23.1719 89.1719 28.125 90.375 31.7656 90.8906C31.9267 90.9069 32.089 90.9069 32.25 90.8906C32.5881 90.9144 32.9275 90.9144 33.2656 90.8906C34.1535 91.0021 35.0525 90.9916 35.9375 90.8594C37.4012 91.5964 38.9922 92.0472 40.625 92.1875C42.2734 92.0063 43.8047 91.2483 44.9483 90.0475C46.092 88.8467 46.7744 87.2802 46.875 85.625V14.6719C46.7955 13.0168 46.1574 11.4376 45.0649 10.1918C43.9723 8.94609 42.4899 8.10736 40.8594 7.8125Z" fill="#328DF0"/>
<path d="M43.75 60.9375V90.625C45.3125 90.2969 44.1875 90.7187 45.3125 89.25V60.9375H43.75Z" fill="#166BB7"/>
<path d="M32.8125 34.375L34.0469 35.7656L38.0937 37.7969L43.75 39.0625H46.875V34.375H32.8125Z" fill="#166BB7"/>
<path d="M40.1563 7.8125H38.0625C35.955 7.87631 33.8911 8.42894 32.0337 9.4268C30.1762 10.4247 28.5761 11.8405 27.3594 13.5625C27.25 13.5625 27.1563 13.7188 27.0469 13.7188C24.3777 13.7479 21.8114 14.7521 19.8313 16.5423C17.8512 18.3324 16.5942 20.7848 16.2969 23.4375C14.7703 23.8897 13.3619 24.6725 12.172 25.7304C10.982 26.7882 10.0396 28.0951 9.41168 29.5583C8.78377 31.0214 8.48577 32.6049 8.53884 34.1962C8.59191 35.7875 8.99475 37.3476 9.71875 38.7656C6.55612 41.2664 4.50113 44.9084 3.99564 48.9085C3.49015 52.9086 4.57453 56.9473 7.01563 60.1563C6.36325 61.0108 5.89854 61.9933 5.65187 63.0397C5.40521 64.0861 5.38214 65.1728 5.58418 66.2287C5.78622 67.2846 6.20882 68.286 6.82435 69.1674C7.43989 70.0488 8.2345 70.7904 9.15625 71.3438C8.5381 72.9807 8.3617 74.7515 8.64476 76.4782C8.92782 78.2049 9.66038 79.8267 10.7688 81.1805C11.8773 82.5344 13.3225 83.5727 14.9594 84.191C16.5962 84.8094 18.367 84.986 20.0938 84.7031C20.8509 86.5639 22.1494 88.1544 23.8209 89.2687C25.4924 90.3831 27.4599 90.9699 29.4688 90.9531C30.352 91.018 31.2399 90.9655 32.1094 90.7969C33.7163 91.6124 35.4806 92.0707 37.2813 92.1406H40.1563C41.8842 92.0715 43.5258 91.3665 44.7658 90.1611C46.0059 88.9557 46.757 87.3347 46.875 85.6094V14.6563C46.7773 12.8941 46.0416 11.2277 44.8052 9.96834C43.5688 8.70895 41.9163 7.94263 40.1563 7.8125Z" stroke="#001C63" stroke-width="2" stroke-linecap="round" stroke-linejoin="round"/>
<path d="M3.90625 50.9063C4.02709 47.3049 5.54267 43.8915 8.133 41.3866C10.7233 38.8817 14.1857 37.4814 17.7891 37.4814C21.3924 37.4814 24.8548 38.8817 27.4451 41.3866C30.0355 43.8915 31.551 47.3049 31.6719 50.9063" stroke="#001C63" stroke-width="2" stroke-linecap="round" stroke-linejoin="round"/>
<path d="M10.0781 52.4375C10.0772 50.9128 10.4244 49.4081 11.0932 48.0379C11.762 46.6678 12.7349 45.4684 13.9375 44.5312" stroke="#001C63" stroke-width="2" stroke-linecap="round" stroke-linejoin="round"/>
<path d="M17.0156 20.3125C17.9319 18.0813 19.5937 16.237 21.7177 15.094C23.8418 13.951 26.2965 13.5802 28.6634 14.0447C31.0303 14.5093 33.1628 15.7804 34.6972 17.6414C36.2317 19.5024 37.0732 21.838 37.0781 24.25" stroke="#001C63" stroke-width="2" stroke-linecap="round" stroke-linejoin="round"/>
<path d="M13.5 65.6251C14.6239 65.1462 15.8796 65.0741 17.0509 65.4215C18.2222 65.7688 19.2357 66.5138 19.9168 67.528C20.5978 68.5422 20.9039 69.7622 20.7822 70.9778C20.6605 72.1935 20.1186 73.3286 19.25 74.1876" stroke="#001C63" stroke-width="2" stroke-linecap="round" stroke-linejoin="round"/>
<path d="M22.3281 28.1252C23.1041 27.3702 24.1439 26.9478 25.2266 26.9478C26.3092 26.9478 27.3491 27.3702 28.125 28.1252" stroke="#001C63" stroke-width="2" stroke-linecap="round" stroke-linejoin="round"/>
<path d="M23.875 79.0626C24.6537 78.2888 25.7069 77.8545 26.8047 77.8545C27.9025 77.8545 28.9557 78.2888 29.7344 79.0626" stroke="#001C63" stroke-width="2" stroke-linecap="round" stroke-linejoin="round"/>
<path d="M46.3281 60.9375H29.1406C26.331 60.9375 23.6364 59.8214 21.6497 57.8347C19.663 55.8479 18.5469 53.1534 18.5469 50.3438V47.0469" stroke="#001C63" stroke-width="2" stroke-linecap="round" stroke-linejoin="round"/>
<path d="M46.3281 37.7969H38.6875C37.4443 37.7969 36.252 37.303 35.3729 36.4239C34.4939 35.5449 34 34.3526 34 33.1094V31.6406" stroke="#001C63" stroke-width="2" stroke-linecap="round" stroke-linejoin="round"/>
<path d="M46.3281 70.1875H38.6875C37.4443 70.1875 36.252 70.6814 35.3729 71.5604C34.4939 72.4395 34 73.6318 34 74.875V76.3438" stroke="#001C63" stroke-width="2" stroke-linecap="round" stroke-linejoin="round"/>
<path d="M37.0469 88.7187C36.3859 88.8046 35.7141 88.7485 35.0765 88.5542C34.4389 88.3599 33.8501 88.0318 33.3493 87.5919C32.8485 87.152 32.4473 86.6103 32.1725 86.0031C31.8977 85.3958 31.7555 84.7369 31.7555 84.0703C31.7555 83.4037 31.8977 82.7448 32.1725 82.1376C32.4473 81.5303 32.8485 80.9886 33.3493 80.5487C33.8501 80.1088 34.4389 79.7807 35.0765 79.5864C35.7141 79.3921 36.3859 79.336 37.0469 79.4219C37.4613 79.4219 37.8587 79.5865 38.1517 79.8795C38.4448 80.1725 38.6094 80.57 38.6094 80.9844C38.6094 81.3988 38.4448 81.7962 38.1517 82.0892C37.8587 82.3823 37.4613 82.5469 37.0469 82.5469C36.8181 82.4947 36.5804 82.4948 36.3516 82.5471C36.1228 82.5994 35.9088 82.7025 35.7253 82.8489C35.5418 82.9952 35.3937 83.181 35.2919 83.3925C35.1901 83.6039 35.1372 83.8356 35.1372 84.0703C35.1372 84.305 35.1901 84.5367 35.2919 84.7481C35.3937 84.9596 35.5418 85.1454 35.7253 85.2918C35.9088 85.4381 36.1228 85.5413 36.3516 85.5935C36.5804 85.6458 36.8181 85.6459 37.0469 85.5937C37.4613 85.5937 37.8587 85.7584 38.1517 86.0514C38.4448 86.3444 38.6094 86.7418 38.6094 87.1562C38.6094 87.5706 38.4448 87.9681 38.1517 88.2611C37.8587 88.5541 37.4613 88.7187 37.0469 88.7187Z" fill="#B0B2FF"/>
<path d="M38.6094 87.1562C38.163 87.2275 37.7065 87.2011 37.2713 87.0787C36.8361 86.9564 36.4326 86.7412 36.0887 86.4478C35.7448 86.1544 35.4686 85.7899 35.2793 85.3795C35.0899 84.969 34.9918 84.5224 34.9918 84.0703C34.9918 83.6183 35.0899 83.1716 35.2793 82.7611C35.4686 82.3507 35.7448 81.9862 36.0887 81.6928C36.4326 81.3995 36.8361 81.1842 37.2713 81.0619C37.7065 80.9396 38.163 80.9131 38.6094 80.9844" stroke="#001C63" stroke-width="2" stroke-linecap="round" stroke-linejoin="round"/>
<path d="M40.625 51.5625H46.875" stroke="#001C63" stroke-width="2" stroke-linecap="round" stroke-linejoin="round"/>
<path d="M53.125 15.3125V84.6875C53.1291 86.6754 53.9206 88.5806 55.3263 89.9862C56.7319 91.3919 58.6371 92.1834 60.625 92.1875H63.6094C65.3994 92.1132 67.1526 91.6549 68.75 90.8437C69.6117 91.0703 70.4997 91.1806 71.3906 91.1719C73.412 91.1701 75.3862 90.5615 77.0577 89.4249C78.7292 88.2883 80.0209 86.676 80.7656 84.7969H81.3906C83.3121 84.9446 85.2359 84.5427 86.9375 83.638C88.639 82.7332 90.048 81.3631 91 79.6875C91.6973 78.4346 92.1143 77.0453 92.2222 75.6155C92.3301 74.1858 92.1263 72.7496 91.625 71.4063C92.5526 70.8521 93.3522 70.1075 93.9708 69.2216C94.5895 68.3357 95.0132 67.3287 95.2141 66.267C95.4149 65.2053 95.3882 64.113 95.1359 63.0624C94.8835 62.0117 94.4111 61.0265 93.75 60.1719C95.9628 57.2454 97.0561 53.6242 96.8326 49.9622C96.6091 46.3001 95.0835 42.8387 92.5312 40.2031C92.1284 39.7836 91.8461 39.2632 91.7141 38.6968C91.5821 38.1303 91.6053 37.5388 91.7812 36.9844C92.5293 34.4593 92.3272 31.7478 91.2132 29.3616C90.0993 26.9753 88.1504 25.0792 85.7344 24.0313C85.3482 23.8757 85.0049 23.63 84.7331 23.3147C84.4613 22.9994 84.2688 22.6236 84.1719 22.2188C83.6212 19.8424 82.2819 17.7225 80.3724 16.2045C78.4629 14.6865 76.0956 13.8599 73.6562 13.8594C73.5469 13.8594 73.4531 13.5313 73.3437 13.5469C72.1333 11.838 70.5448 10.4316 68.702 9.43695C66.8591 8.44235 64.8116 7.88644 62.7187 7.8125H60.625C58.6371 7.81663 56.7319 8.60813 55.3263 10.0138C53.9206 11.4194 53.1291 13.3246 53.125 15.3125Z" stroke="#001C63" stroke-width="2" stroke-linecap="round" stroke-linejoin="round"/>
<path d="M96.875 50.9063C96.7542 47.3049 95.2386 43.8915 92.6483 41.3866C90.0579 38.8817 86.5956 37.4814 82.9922 37.4814C79.3888 37.4814 75.9265 38.8817 73.3361 41.3866C70.7458 43.8915 69.2302 47.3049 69.1094 50.9063" stroke="#001C63" stroke-width="2" stroke-linecap="round" stroke-linejoin="round"/>
<path d="M90.7031 52.4375C90.704 50.9128 90.3569 49.4081 89.688 48.0379C89.0192 46.6678 88.0464 45.4684 86.8438 44.5312" stroke="#001C63" stroke-width="2" stroke-linecap="round" stroke-linejoin="round"/>
<path d="M83.7656 20.3125C82.8494 18.0813 81.1875 16.237 79.0635 15.094C76.9395 13.951 74.4847 13.5802 72.1179 14.0447C69.751 14.5093 67.6185 15.7804 66.084 17.6414C64.5495 19.5024 63.7081 21.838 63.7031 24.25" stroke="#001C63" stroke-width="2" stroke-linecap="round" stroke-linejoin="round"/>
<path d="M87.2812 65.6251C86.1574 65.1462 84.9016 65.0741 83.7303 65.4215C82.5591 65.7688 81.5456 66.5138 80.8645 67.528C80.1834 68.5422 79.8773 69.7622 79.9991 70.9778C80.1208 72.1935 80.6626 73.3286 81.5312 74.1876" stroke="#001C63" stroke-width="2" stroke-linecap="round" stroke-linejoin="round"/>
<path d="M78.4531 28.1251C77.6744 27.3513 76.6212 26.917 75.5234 26.917C74.4256 26.917 73.3724 27.3513 72.5938 28.1251" stroke="#001C63" stroke-width="2" stroke-linecap="round" stroke-linejoin="round"/>
<path d="M76.9062 79.0626C76.1276 78.2888 75.0744 77.8545 73.9766 77.8545C72.8788 77.8545 71.8256 78.2888 71.0469 79.0626" stroke="#001C63" stroke-width="2" stroke-linecap="round" stroke-linejoin="round"/>
<path d="M54.4531 60.9375H71.6406C74.4503 60.9375 77.1448 59.8214 79.1315 57.8347C81.1183 55.8479 82.2344 53.1534 82.2344 50.3438V47.0469" stroke="#001C63" stroke-width="2" stroke-linecap="round" stroke-linejoin="round"/>
<path d="M66.7969 31.625V33.0938C66.7969 34.337 66.303 35.5292 65.4239 36.4083C64.5449 37.2874 63.3526 37.7813 62.1094 37.7813H54.4531" stroke="#001C63" stroke-width="2" stroke-linecap="round" stroke-linejoin="round"/>
<path d="M54.4531 70.1875H62.0938C63.337 70.1875 64.5292 70.6814 65.4083 71.5604C66.2874 72.4395 66.7813 73.6318 66.7813 74.875V76.3438" stroke="#001C63" stroke-width="2" stroke-linecap="round" stroke-linejoin="round"/>
<path d="M63.7344 88.7187C63.32 88.7187 62.9225 88.5541 62.6295 88.2611C62.3365 87.9681 62.1719 87.5706 62.1719 87.1562C62.1719 86.7418 62.3365 86.3444 62.6295 86.0514C62.9225 85.7584 63.32 85.5937 63.7344 85.5937C63.9632 85.6459 64.2008 85.6458 64.4296 85.5935C64.6584 85.5413 64.8725 85.4381 65.056 85.2918C65.2394 85.1454 65.3876 84.9596 65.4894 84.7481C65.5912 84.5367 65.6441 84.305 65.6441 84.0703C65.6441 83.8356 65.5912 83.6039 65.4894 83.3925C65.3876 83.181 65.2394 82.9952 65.056 82.8489C64.8725 82.7025 64.6584 82.5994 64.4296 82.5471C64.2008 82.4948 63.9632 82.4947 63.7344 82.5469C63.32 82.5469 62.9225 82.3823 62.6295 82.0892C62.3365 81.7962 62.1719 81.3988 62.1719 80.9844C62.1719 80.57 62.3365 80.1725 62.6295 79.8795C62.9225 79.5865 63.32 79.4219 63.7344 79.4219C64.3954 79.336 65.0671 79.3921 65.7047 79.5864C66.3423 79.7807 66.9312 80.1088 67.432 80.5487C67.9327 80.9886 68.3339 81.5303 68.6088 82.1376C68.8836 82.7448 69.0258 83.4037 69.0258 84.0703C69.0258 84.7369 68.8836 85.3958 68.6088 86.0031C68.3339 86.6103 67.9327 87.152 67.432 87.5919C66.9312 88.0318 66.3423 88.3599 65.7047 88.5542C65.0671 88.7485 64.3954 88.8046 63.7344 88.7187Z" fill="#E37CFF"/>
<path d="M62.1719 87.1562C62.906 87.0391 63.5743 86.664 64.0568 86.0984C64.5393 85.5328 64.8043 84.8137 64.8043 84.0703C64.8043 83.3269 64.5393 82.6078 64.0568 82.0422C63.5743 81.4766 62.906 81.1016 62.1719 80.9844" stroke="#001C63" stroke-width="2" stroke-linecap="round" stroke-linejoin="round"/>
<path d="M59.375 51.5625H53.125" stroke="#001C63" stroke-width="2" stroke-linecap="round" stroke-linejoin="round"/>
</svg>
