<svg width="100" height="100" viewBox="0 0 100 100" fill="none" xmlns="http://www.w3.org/2000/svg">
<g clip-path="url(#clip0_197_89)">
<path d="M27.5 96.875C19.5737 96.875 13.125 90.4263 13.125 82.5V35.625H86.875V82.5C86.875 90.4263 80.4263 96.875 72.5 96.875H27.5Z" fill="#BCDBFE"/>
<path d="M86.25 36.25V82.5C86.25 90.0813 80.0813 96.25 72.5 96.25H27.5C19.9187 96.25 13.75 90.0813 13.75 82.5V36.25H86.25ZM87.5 35H12.5V82.5C12.5 90.7837 19.2163 97.5 27.5 97.5H72.5C80.7837 97.5 87.5 90.7837 87.5 82.5V35Z" fill="#3F81C8"/>
<path d="M13.75 37.5H38.75V96.25H27.5C19.9063 96.25 13.75 90.0937 13.75 82.5V37.5Z" fill="#EDF0F7"/>
<path d="M13.75 35.9225V28.125C13.75 14.3175 24.9425 3.125 38.75 3.125H61.25C75.0575 3.125 86.25 14.3175 86.25 28.125V35.9225" stroke="#011852" stroke-miterlimit="10"/>
<path d="M13.75 36.875C12.0275 36.875 10.625 35.4737 10.625 33.75C10.625 32.0263 12.0275 30.625 13.75 30.625H86.25C87.9725 30.625 89.375 32.0263 89.375 33.75C89.375 35.4737 87.9725 36.875 86.25 36.875H13.75Z" fill="#BCDBFE"/>
<path d="M86.25 31.25C87.6288 31.25 88.75 32.3712 88.75 33.75C88.75 35.1288 87.6288 36.25 86.25 36.25H13.75C12.3712 36.25 11.25 35.1288 11.25 33.75C11.25 32.3712 12.3712 31.25 13.75 31.25H86.25ZM86.25 30H13.75C11.6788 30 10 31.6788 10 33.75C10 35.8212 11.6788 37.5 13.75 37.5H86.25C88.3212 37.5 90 35.8212 90 33.75C90 31.6788 88.3212 30 86.25 30Z" fill="#011852"/>
<path d="M61.2488 76.875C61.0575 76.875 60.8625 76.8663 60.6675 76.8475C57.84 76.5625 55.625 73.9488 55.625 70.8938V51.25C55.625 48.8375 53.6625 46.875 51.25 46.875C48.8375 46.875 46.875 48.8375 46.875 51.25V52.5C46.875 56.29 43.7913 59.375 40.0013 59.375C39.8775 59.375 39.755 59.3713 39.63 59.365C36.0425 59.1775 33.125 55.9062 33.125 52.075V42.5C33.125 37.2613 30.0388 32.7287 25.5888 30.625H74.4125C69.9613 32.7287 66.875 37.2613 66.875 42.5V71.25C66.875 72.7525 66.29 74.165 65.2275 75.2287C64.165 76.29 62.7513 76.875 61.2488 76.875Z" fill="#328DF0"/>
<path d="M72.1025 31.25C68.565 33.74 66.25 37.855 66.25 42.5V47.5V71.25C66.25 74.0075 64.0075 76.25 61.25 76.25C61.0788 76.25 60.905 76.2413 60.73 76.2238C58.2175 75.9725 56.25 73.6313 56.25 70.8938V51.25C56.25 48.4925 54.0075 46.25 51.25 46.25C48.4925 46.25 46.25 48.4925 46.25 51.25V52.5C46.25 55.9462 43.4462 58.75 40 58.75C39.8875 58.75 39.775 58.7475 39.6625 58.7413C36.4025 58.57 33.75 55.58 33.75 52.0762V47.5V42.5C33.75 37.855 31.435 33.74 27.8975 31.25H72.1025ZM80 30H20C26.9037 30 32.5 35.5963 32.5 42.5V47.5V52.0762C32.5 56.1375 35.5413 59.7775 39.5963 59.99C39.7325 59.9963 39.8662 60 40 60C44.1425 60 47.5 56.6425 47.5 52.5V51.25C47.5 49.1788 49.1788 47.5 51.25 47.5C53.3212 47.5 55 49.1788 55 51.25V70.8938C55 74.1625 57.3525 77.1425 60.605 77.4675C60.8225 77.49 61.0375 77.5 61.25 77.5C64.7025 77.5 67.5 74.7012 67.5 71.25V47.5V42.5C67.5 35.5963 73.0963 30 80 30Z" fill="#265A93"/>
</g>
<defs>
<clipPath id="clip0_197_89">
<rect width="100" height="100" fill="white"/>
</clipPath>
</defs>
</svg>
