<svg width="70" height="101" viewBox="0 0 70 101" fill="none" xmlns="http://www.w3.org/2000/svg">
<path d="M12.9397 12.9903C11.7257 12.9856 10.7404 13.9709 10.745 15.1849V23.2695L6.14601 27.336C4.87485 28.4576 3.42622 29.6319 2.20859 31.1605C0.990954 32.6891 0.0139625 34.6903 0.0139625 37.0505V86.3811C-0.118777 89.7085 0.697075 93.0139 2.36996 95.8697C2.38566 95.8944 2.40185 95.9109 2.41838 95.9357C4.25095 98.7908 7.38343 100.551 10.745 100.551H58.8332L58.5911 100.535C61.7139 100.902 64.8092 99.6184 66.8048 97.1619C66.8519 97.0958 66.8949 97.0237 66.934 96.9518C68.9318 93.8394 70 90.2052 70 86.479V36.7449C70 30.6185 64.6032 27.8009 58.8332 23.2062V15.1864C58.8378 13.9787 57.8624 12.9961 56.6547 12.9918L12.9397 12.9903Z" fill="#B3E5FC"/>
<path d="M58.5914 100.533C66.7692 100.533 69.9198 93.8101 69.9997 86.4777V37.0913C69.9997 33.2046 67.9179 29.5605 63.8942 27.2374L58.8348 23.207V15.1844C58.8394 13.9755 57.862 12.9922 56.653 12.9898L12.9412 12.9895C11.4799 12.9895 10.745 14.1592 10.745 15.1839L10.745 20.0739H54.4628V23.2065L59.5222 27.2369C62.7208 29.7275 65.6277 32.9573 65.6277 37.0908V86.4772C65.0381 92.8639 63.1178 99.8738 55.987 100.55L58.5914 100.533Z" fill="#A1CEE3"/>
<path d="M12.9396 0C9.34426 0 6.37189 2.95626 6.37189 6.55161V10.8602C6.37189 14.4556 9.34426 17.4118 12.9396 17.4118H56.6547C60.25 17.4118 63.2063 14.4556 63.2063 10.8602V6.55161C63.2063 2.95626 60.25 0 56.6547 0H12.9396Z" fill="#CCCCCC"/>
<path d="M34.7891 21.8491C25.6334 21.8491 18.2487 29.582 18.2487 38.9543C18.2487 48.3268 25.6334 56.0433 34.7891 56.0433C43.9448 56.0433 51.3295 48.3268 51.3295 38.9543C51.3295 29.582 43.9448 21.8491 34.7891 21.8491Z" fill="#FFCD40"/>
<path d="M34.7886 28.4155C34.2111 28.4178 33.6579 28.6485 33.2499 29.0573C32.8419 29.4661 32.6123 30.0197 32.6111 30.5973C32.3226 30.5962 32.0368 30.6522 31.77 30.7621C31.5033 30.872 31.2609 31.0336 31.0569 31.2376C30.8529 31.4416 30.6913 31.684 30.5814 31.9507C30.4715 32.2175 30.4155 32.5034 30.4166 32.7919V39.3414C30.4189 39.9211 30.6514 40.4762 31.0629 40.8846C31.4745 41.2929 32.0314 41.5211 32.6111 41.5189H34.7886V43.7134H32.6111C32.3237 43.7123 32.0389 43.7679 31.773 43.8769C31.507 43.986 31.2652 44.1465 31.0614 44.3492C30.8575 44.5518 30.6957 44.7927 30.585 45.0579C30.4744 45.3232 30.4171 45.6077 30.4166 45.8952C30.4155 46.1837 30.4714 46.4696 30.5813 46.7363C30.6912 47.0031 30.8528 47.2455 31.0568 47.4495C31.2608 47.6535 31.5032 47.8151 31.77 47.925C32.0368 48.0349 32.3226 48.0909 32.6111 48.0897C32.6134 48.6665 32.8435 49.2191 33.2514 49.627C33.6593 50.0348 34.2118 50.265 34.7886 50.2672C35.0757 50.2683 35.3602 50.2129 35.6258 50.1041C35.8915 49.9953 36.1331 49.8352 36.3369 49.633C36.5407 49.4308 36.7026 49.1904 36.8135 48.9256C36.9244 48.6608 36.9821 48.3768 36.9832 48.0897C37.5629 48.0874 38.118 47.8549 38.5264 47.4434C38.9347 47.0318 39.1629 46.4749 39.1607 45.8952V39.3414C39.1629 38.7616 38.9347 38.2047 38.5264 37.7932C38.118 37.3816 37.5629 37.1491 36.9832 37.1468H34.7886V34.9693H36.9832C37.56 34.9671 38.1125 34.737 38.5204 34.3291C38.9283 33.9212 39.1584 33.3687 39.1607 32.7919C39.1618 32.5048 39.1064 32.2203 38.9975 31.9546C38.8887 31.689 38.7286 31.4474 38.5264 31.2436C38.3242 31.0398 38.0839 30.8779 37.8191 30.767C37.5543 30.6561 37.2703 30.5984 36.9832 30.5973C36.9826 30.3099 36.9254 30.0254 36.8147 29.7601C36.7041 29.4948 36.5422 29.2539 36.3384 29.0513C36.1345 28.8486 35.8927 28.6882 35.6268 28.5791C35.3609 28.47 35.0761 28.4144 34.7886 28.4155Z" fill="#F8A92D"/>
<path d="M32.6106 87.4299C29.0153 87.4299 26.0428 90.4023 26.0428 93.9977C26.0428 97.5931 29.0152 100.549 32.6106 100.549H47.9084C51.5038 100.549 54.46 97.5931 54.46 93.9977C54.46 90.4023 51.5037 87.4299 47.9084 87.4299H32.6106Z" fill="#FFCD40"/>
<path d="M6.951 92.4342C6.02043 95.9071 8.12227 99.5474 11.5951 100.478C15.0679 101.409 18.6927 99.3027 19.6233 95.8298L23.5827 81.0531C24.5132 77.5803 22.4229 73.9599 18.95 73.0293C15.4771 72.0987 11.8409 74.1849 10.9104 77.6578L6.951 92.4342Z" fill="#FFCD40"/>
<path d="M15.1187 8.72853C13.911 8.73266 12.9365 9.71533 12.9412 10.9231V17.4128H17.2962V10.9231C17.301 9.71533 16.3265 8.73266 15.1187 8.72853ZM24.9601 8.72853C23.746 8.72375 22.7607 9.70906 22.7655 10.9231V17.4128H27.1418V10.9231C27.1466 9.71533 26.1678 8.73266 24.9601 8.72853ZM34.7886 8.72853C33.5809 8.73266 32.6064 9.71533 32.6112 10.9231V17.4128H36.9832V10.9231C36.988 9.70906 36.0027 8.72374 34.7886 8.72853ZM44.6343 8.72853C43.4202 8.72375 42.4349 9.70906 42.4397 10.9231V17.4128H46.8117V10.9231C46.8165 9.71533 45.842 8.73266 44.6343 8.72853ZM54.4585 8.72853C53.2508 8.73266 52.2763 9.71533 52.2811 10.9231V17.4128H56.6531V10.9231C56.6579 9.70906 55.6726 8.72374 54.4585 8.72853Z" fill="#333333"/>
<path d="M34.7887 21.8486C29.2277 21.8486 24.3317 24.7113 21.3353 29.0515C23.9407 27.27 27.0568 26.2207 30.4166 26.2207C39.5723 26.2207 46.9569 33.9524 46.957 43.3247C46.957 46.9971 45.8127 50.4094 43.8829 53.2088C48.3703 50.139 51.329 44.8801 51.329 38.9525C51.329 29.5802 43.9444 21.8486 34.7887 21.8486Z" fill="#F8A92D"/>
<path d="M12.9413 0.0012207C9.99711 0.0012207 7.49641 1.99268 6.6778 4.68497C7.28128 4.4999 7.90921 4.37333 8.56921 4.37333H52.2811C55.8764 4.37333 58.8349 7.32757 58.8349 10.9229V15.231C58.8349 15.8837 58.7085 16.504 58.5274 17.1008C61.2151 16.2829 63.2069 13.7998 63.2069 10.8589V6.55081C63.2069 2.95555 60.2485 0.00147284 56.6531 0.00147284L12.9413 0.0012207Z" fill="#B2B2B2"/>
<path d="M32.5956 87.4482C29.6541 87.4482 27.1705 89.4391 26.3535 92.1277C26.9505 91.9468 27.5704 91.8203 28.2235 91.8203H43.5385C47.1338 91.8203 50.088 94.7746 50.088 98.3699C50.088 99.0284 49.9604 99.6546 49.7763 100.257C52.4669 99.4374 54.46 96.9407 54.46 93.9978C54.46 90.4025 51.5059 87.4482 47.9105 87.4482H32.5956Z" fill="#F8A92D"/>
<path d="M17.6463 72.819C14.6696 72.6455 11.8492 74.5504 10.973 77.4899C12.1133 77.138 13.3506 77.0719 14.5765 77.3999C18.0493 78.3305 20.1395 81.954 19.209 85.4268L15.2511 100.2C15.2331 100.266 15.1985 100.325 15.1785 100.392C17.2752 99.7468 19.019 98.0826 19.6232 95.8278L23.581 81.0552C24.5116 77.5824 22.4214 73.9589 18.9486 73.0283C18.5145 72.9118 18.0799 72.8438 17.6463 72.819Z" fill="#F8A92D"/>
<path d="M27.1402 78.6838C23.5449 78.6838 20.5886 81.6562 20.5886 85.2516C20.5886 88.8469 23.5449 91.8032 27.1402 91.8032H42.4381C46.0334 91.8032 49.0058 88.8469 49.0058 85.2516C49.0058 81.6562 46.0334 78.6838 42.4381 78.6838H27.1402Z" fill="#FFCD40"/>
<path d="M27.1412 78.7019C24.1997 78.7019 21.7161 80.6928 20.8991 83.3814C21.4961 83.2004 22.1161 83.074 22.7692 83.074H38.0841C41.6795 83.074 44.6336 86.0283 44.6336 89.6236C44.6336 90.2821 44.5061 90.9082 44.322 91.5106C47.0126 90.691 49.0057 88.1944 49.0057 85.2515C49.0057 81.6561 46.0515 78.7019 42.4562 78.7019H27.1412Z" fill="#F8A92D"/>
<path d="M32.6106 69.9375C29.0152 69.9375 26.0428 72.9099 26.0428 76.5052C26.0428 80.1006 29.0152 83.0568 32.6106 83.0568H47.9084C51.5038 83.0568 54.46 80.1006 54.46 76.5052C54.46 72.9099 51.5038 69.9375 47.9084 69.9375H32.6106Z" fill="#FFCD40"/>
<path d="M32.5941 69.9538C31.256 70.0116 29.9552 70.5172 28.8035 71.1756C27.2628 72.2749 26.253 74.0711 26.1 75.9562C31.1295 75.9645 36.1597 75.9398 41.1888 75.9729C43.8093 76.1439 46.5826 76.6222 48.7194 78.2527C49.8153 79.0682 50.3351 80.5095 50.001 81.8376C49.9151 82.3375 49.5457 83.0496 50.3272 82.5671C53.2278 81.4399 55.0574 78.0814 54.2913 75.0394C53.6406 72.01 50.627 69.7493 47.5356 69.9593C42.5551 69.9578 37.5746 69.9553 32.5941 69.9538Z" fill="#F8A92D"/>
<path d="M26.0429 61.207C22.4476 61.207 19.4913 64.1634 19.4913 67.7586C19.4913 71.354 22.4476 74.3102 26.0429 74.3102H41.3569C44.9523 74.3102 47.9085 71.354 47.9085 67.7586C47.9085 64.1634 44.9523 61.207 41.3569 61.207H26.0429Z" fill="#FFCD40"/>
<path d="M26.0446 61.2061C23.1031 61.2061 20.6195 63.1967 19.8025 65.8853C20.3995 65.7043 21.0195 65.5779 21.6726 65.5779H36.9875C40.5829 65.5779 43.537 68.5322 43.537 72.1275C43.537 72.786 43.4095 73.4124 43.2254 74.0148C45.916 73.1952 47.9091 70.6985 47.9091 67.7556C47.9091 64.1603 44.9549 61.2061 41.3596 61.2061H26.0446Z" fill="#F8A92D"/>
<path d="M30.416 52.4609C26.8206 52.4609 23.8644 55.4172 23.8644 59.0125C23.8644 62.6079 26.8206 65.5803 30.416 65.5803H45.73C49.3253 65.5803 52.2816 62.6079 52.2816 59.0125C52.2816 55.4172 49.3253 52.4609 45.73 52.4609H30.416Z" fill="#FFCD40"/>
<path d="M30.4166 52.4614C27.4751 52.4614 24.9915 54.4523 24.1745 57.1409C24.7715 56.96 25.3915 56.8335 26.0446 56.8335H41.3595C44.9549 56.8335 47.909 59.7878 47.909 63.3831C47.909 64.0416 47.7815 64.668 47.5974 65.2704C50.288 64.4508 52.2811 61.9539 52.2811 59.011C52.2811 55.4157 49.3269 52.4617 45.7316 52.4617L30.4166 52.4614Z" fill="#F8A92D"/>
</svg>
