<svg width="100" height="94" viewBox="0 0 100 94" fill="none" xmlns="http://www.w3.org/2000/svg">
<path d="M23.125 81.6624V70.4999C23.125 60.6581 29.2812 51.6435 38.8075 47.5345L40.0437 46.9999L38.8075 46.4653C29.2812 42.3563 23.125 33.3417 23.125 23.4999V12.3374H76.875V23.4999C76.875 33.3417 70.7187 42.3563 61.1925 46.4653L59.9563 46.9999L61.1925 47.5345C70.7187 51.6435 76.875 60.6581 76.875 70.4999V81.6624H23.125Z" fill="#F2FAFF"/>
<path d="M76.25 12.925V23.5C76.25 33.1127 70.2375 41.9181 60.9325 45.9319L58.4575 47L60.9325 48.0681C70.2375 52.0819 76.25 60.8873 76.25 70.5V81.075H23.75V70.5C23.75 60.8873 29.7625 52.0819 39.0675 48.0681L41.5425 47L39.0675 45.9319C29.7625 41.9181 23.75 33.1127 23.75 23.5V12.925H76.25ZM77.5 11.75H22.5V23.5C22.5 33.9328 29.0788 42.9157 38.5462 47C29.0788 51.0843 22.5 60.0672 22.5 70.5V82.25H77.5V70.5C77.5 60.0672 70.9212 51.0843 61.4537 47C70.9212 42.9157 77.5 33.9328 77.5 23.5V11.75Z" fill="#788B9C"/>
<path d="M23.125 15.8625V11.1625H15.625V2.9375H84.375V11.1625H76.875V15.8625H23.125Z" fill="#328DF0"/>
<path d="M83.75 3.5251V10.5751H77.5H76.25V11.7501V15.2751H23.75V11.7501V10.5751H22.5H16.25V3.5251H83.75ZM85 2.3501H15V11.7501H22.5V16.4501H77.5V11.7501H85V2.3501Z" fill="#4E7AB5"/>
<path d="M27.5 79.9H72.5C72.5 63.3995 50 58.75 50 58.75C50 58.75 27.5 63.5099 27.5 79.9Z" fill="#FFC49C"/>
<path d="M15.625 91.0625V82.8375H23.125V78.1375H76.875V82.8375H84.375V91.0625H15.625Z" fill="#328DF0"/>
<path d="M76.25 78.725V82.25V83.425H77.5H83.75V90.475H16.25V83.425H22.5H23.75V82.25V78.725H76.25ZM77.5 77.55H22.5V82.25H15V91.65H85V82.25H77.5V77.55Z" fill="#4E7AB5"/>
<path d="M77.5 10.575H40V11.75H77.5V10.575Z" fill="#4E7AB5"/>
<path d="M33.75 10.575H22.5V11.75H33.75V10.575Z" fill="#4E7AB5"/>
<path d="M77.5 82.25H40V83.425H77.5V82.25Z" fill="#4E7AB5"/>
<path d="M33.75 82.25H22.5V83.425H33.75V82.25Z" fill="#4E7AB5"/>
<path d="M30.865 35.25C34.68 41.4704 41.8125 45.6605 50 45.6605C58.1875 45.6605 65.32 41.4704 69.135 35.25H30.865Z" fill="#FFC49C"/>
</svg>
