<svg width="104" height="89" viewBox="0 0 104 89" fill="none" xmlns="http://www.w3.org/2000/svg">
<path d="M9.5 25.9751C9.5 27.699 10.1843 29.3528 11.4033 30.5718C12.6223 31.7908 14.2761 32.4751 16 32.4751C17.7239 32.4751 19.3777 31.7908 20.5967 30.5718C21.8157 29.3528 22.5 27.699 22.5 25.9751C22.5 24.2512 21.8157 22.5974 20.5967 21.3784C19.3777 20.1594 17.7239 19.4751 16 19.4751C14.9946 19.4751 14.0498 19.6982 13.2197 20.104L12.5 20.4565V7.29736L13.1045 7.42627L33.1045 11.686L33.5 11.77V29.9751C33.5 31.699 34.1843 33.3528 35.4033 34.5718C36.6223 35.7908 38.2761 36.4751 40 36.4751C41.7239 36.4751 43.3777 35.7908 44.5967 34.5718C45.8157 33.3528 46.5 31.699 46.5 29.9751C46.5 28.2512 45.8157 26.5974 44.5967 25.3784C43.3777 24.1594 41.7239 23.4751 40 23.4751C38.9946 23.4751 38.0498 23.6982 37.2197 24.104L36.5 24.4565V7.37939L9.5 1.59326V25.9751Z" fill="#08286E" stroke="black"/>
<rect x="61.8303" y="8.46118" width="28.4857" height="8.73028" fill="#D9D9D9" stroke="black"/>
<rect x="49.1514" y="0.5" width="14.9223" height="24.9474" rx="4.5" fill="#08286E" stroke="black"/>
<rect x="87.7777" y="0.5" width="14.9223" height="24.9474" rx="4.5" fill="#08286E" stroke="black"/>
<path d="M67 33.4751H101.5V84.4751H67C61.7533 84.4751 57.5 80.2218 57.5 74.9751V42.9751C57.5 37.7284 61.7533 33.4751 67 33.4751Z" fill="#08286E" stroke="black"/>
<path d="M65 69.4751H101.5V84.4751H65C60.8579 84.4751 57.5 81.1172 57.5 76.9751C57.5 72.833 60.8579 69.4751 65 69.4751Z" fill="white" stroke="black"/>
<g clip-path="url(#clip0_124_2)">
<path d="M33.9292 54.0627C36.8904 54.0627 39.5816 55.7487 41.8296 58.3899C44.0746 61.0277 45.8284 64.5648 46.9038 68.1184C47.9809 71.6777 48.3614 75.1981 47.9146 77.7971C47.6912 79.096 47.268 80.1239 46.6636 80.8186C46.0732 81.4971 45.2875 81.8849 44.2495 81.885C42.8937 81.885 41.5484 81.4044 40.1274 80.6389C38.7003 79.8701 37.2529 78.8468 35.6646 77.7903C32.5192 75.6982 28.8997 73.5295 24.3149 73.5295C18.6823 73.5297 15.5702 75.7243 12.8999 77.8684C10.2321 80.0105 8.10641 81.9875 4.3208 81.9875C3.28335 81.9875 2.50065 81.5985 1.91358 80.9182C1.31222 80.2213 0.89318 79.19 0.675297 77.886C0.239417 75.2771 0.635497 71.7437 1.72803 68.1711C2.81881 64.6045 4.58661 61.0543 6.84327 58.4065C9.10335 55.7548 11.8027 54.0629 14.7632 54.0627C15.1358 54.0627 15.6825 54.1939 16.3989 54.429C17.1059 54.6609 17.9052 54.9681 18.7866 55.2864C20.5158 55.9107 22.5277 56.5686 24.3462 56.5686C26.1676 56.5686 28.1204 55.9093 29.8179 55.2854C30.6822 54.9677 31.4742 54.6608 32.189 54.4299C32.9094 54.1973 33.4908 54.0627 33.9292 54.0627ZM36.1411 67.4739C35.129 67.4739 34.1666 68.1847 34.1665 69.2268C34.1665 70.269 35.129 70.9797 36.1411 70.9797C37.1513 70.9795 38.1147 70.2692 38.1147 69.2268C38.1146 68.1849 37.153 67.4741 36.1411 67.4739ZM14.0249 58.0754C10.1646 58.0754 6.89036 60.751 6.89014 64.2141C6.89014 67.6761 10.1644 70.3538 14.0249 70.3538C17.887 70.3537 21.1587 67.676 21.1587 64.2141C21.1585 60.751 17.8852 58.0755 14.0249 58.0754ZM14.0249 61.5813C15.8639 61.5813 17.2102 62.8329 17.2105 64.2141C17.2105 65.5954 15.864 66.8469 14.0249 66.8469C12.1871 66.8469 10.8394 65.5953 10.8394 64.2141C10.8396 62.833 12.1873 61.5813 14.0249 61.5813ZM31.6245 63.7141C30.6125 63.7143 29.6509 64.4259 29.6509 65.468C29.6511 66.5099 30.6126 67.2208 31.6245 67.2209C32.6365 67.2209 33.5989 66.51 33.5991 65.468C33.5991 64.4258 32.6367 63.7141 31.6245 63.7141ZM40.564 63.7141C39.5518 63.7141 38.5894 64.4258 38.5894 65.468C38.5896 66.51 39.552 67.2209 40.564 67.2209C41.574 67.2207 42.5373 66.5102 42.5376 65.468C42.5376 64.4259 41.5759 63.7143 40.564 63.7141ZM36.1411 59.9553C35.129 59.9553 34.1665 60.666 34.1665 61.7083C34.1666 62.7504 35.129 63.4612 36.1411 63.4612C37.1512 63.461 38.1147 62.7506 38.1147 61.7083C38.1147 60.6662 37.1531 59.9555 36.1411 59.9553Z" fill="#08286E" stroke="black"/>
</g>
<path d="M66 32.9751H67V69.9751H66V32.9751Z" fill="black"/>
<defs>
<clipPath id="clip0_124_2">
<rect width="48.6514" height="40.1006" fill="white" transform="translate(0 47.9751)"/>
</clipPath>
</defs>
</svg>
