<svg width="79" height="85" viewBox="0 0 79 85" fill="none" xmlns="http://www.w3.org/2000/svg">
<path d="M50.582 34.1252H27.3251L38.9531 13.9846L50.582 34.1252Z" fill="#08286E" stroke="#08286E"/>
<rect x="35.1254" y="32.9612" width="7.65635" height="17.7554" fill="#08286E" stroke="#08286E"/>
<mask id="path-3-inside-1_107_135" fill="white">
<path d="M17.5543 65.1022C11.5244 60.658 7.0279 54.4467 4.6889 47.3306C2.34991 40.2145 2.28452 32.5467 4.5018 25.3917C6.71908 18.2368 11.109 11.9496 17.0622 7.40323C23.0153 2.85681 30.2363 0.27667 37.7226 0.0210134C45.2089 -0.234643 52.589 1.84687 58.8384 5.97657C65.0879 10.1063 69.8965 16.0793 72.5967 23.0663C75.297 30.0533 75.7548 37.7077 73.9067 44.9668C72.0587 52.2259 67.9963 58.7295 62.2838 63.5747L54.042 53.8575C57.7365 50.724 60.3637 46.5179 61.5589 41.8232C62.7541 37.1285 62.458 32.1782 60.7117 27.6594C58.9654 23.1407 55.8555 19.2778 51.8138 16.6069C47.7721 13.9361 42.9991 12.59 38.1574 12.7553C33.3158 12.9206 28.6458 14.5893 24.7957 17.5296C20.9456 20.4699 18.1065 24.536 16.6725 29.1634C15.2385 33.7907 15.2808 38.7497 16.7935 43.3519C18.3062 47.9541 21.2143 51.9712 25.1139 54.8454L17.5543 65.1022Z"/>
</mask>
<path d="M17.5543 65.1022C11.5244 60.658 7.0279 54.4467 4.6889 47.3306C2.34991 40.2145 2.28452 32.5467 4.5018 25.3917C6.71908 18.2368 11.109 11.9496 17.0622 7.40323C23.0153 2.85681 30.2363 0.27667 37.7226 0.0210134C45.2089 -0.234643 52.589 1.84687 58.8384 5.97657C65.0879 10.1063 69.8965 16.0793 72.5967 23.0663C75.297 30.0533 75.7548 37.7077 73.9067 44.9668C72.0587 52.2259 67.9963 58.7295 62.2838 63.5747L54.042 53.8575C57.7365 50.724 60.3637 46.5179 61.5589 41.8232C62.7541 37.1285 62.458 32.1782 60.7117 27.6594C58.9654 23.1407 55.8555 19.2778 51.8138 16.6069C47.7721 13.9361 42.9991 12.59 38.1574 12.7553C33.3158 12.9206 28.6458 14.5893 24.7957 17.5296C20.9456 20.4699 18.1065 24.536 16.6725 29.1634C15.2385 33.7907 15.2808 38.7497 16.7935 43.3519C18.3062 47.9541 21.2143 51.9712 25.1139 54.8454L17.5543 65.1022Z" fill="#08286E" stroke="#111111" stroke-width="2" mask="url(#path-3-inside-1_107_135)"/>
<rect x="0.5" y="52.438" width="77.6285" height="31.4613" fill="#08286E" stroke="#111111"/>
<path d="M65.626 58.615H70.8429V75.743H65.626V58.615Z" fill="white"/>
<path d="M63.9796 69.4179C63.9796 69.4949 63.9565 69.9027 63.9104 70.6413H55.1386C55.3233 71.1184 55.6311 71.4877 56.062 71.7494C56.4929 71.9956 57.0315 72.1187 57.6778 72.1187C58.2318 72.1187 58.6935 72.0494 59.0628 71.9109C59.4476 71.7724 59.8631 71.5339 60.3093 71.1954L63.0332 73.9423C61.8021 75.2965 59.9631 75.9737 57.5162 75.9737C55.9927 75.9737 54.6539 75.6967 53.4997 75.1427C52.3455 74.5733 51.4529 73.7884 50.822 72.7881C50.191 71.7878 49.8755 70.6644 49.8755 69.4179C49.8755 68.156 50.1833 67.0326 50.7989 66.0477C51.4298 65.0474 52.2839 64.2703 53.3612 63.7163C54.4538 63.1623 55.6772 62.8853 57.0315 62.8853C58.3088 62.8853 59.4706 63.1392 60.5171 63.647C61.5789 64.1549 62.4176 64.9012 63.0332 65.8861C63.6642 66.871 63.9796 68.0483 63.9796 69.4179ZM57.0776 66.4401C56.539 66.4401 56.0927 66.5863 55.7388 66.8787C55.3848 67.1711 55.154 67.5866 55.0463 68.1252H59.109C59.0013 67.602 58.7704 67.1942 58.4165 66.9018C58.0625 66.594 57.6163 66.4401 57.0776 66.4401Z" fill="white"/>
<path d="M50.0855 63.1165L45.0071 75.7432H39.6056L34.5272 63.1165H39.8826L42.4218 69.88L45.1456 63.1165H50.0855Z" fill="white"/>
<path d="M34.6066 69.4179C34.6066 69.4949 34.5836 69.9027 34.5374 70.6413H25.7656C25.9503 71.1184 26.2581 71.4877 26.689 71.7494C27.1199 71.9956 27.6585 72.1187 28.3048 72.1187C28.8588 72.1187 29.3205 72.0494 29.6898 71.9109C30.0746 71.7724 30.4901 71.5339 30.9364 71.1954L33.6602 73.9423C32.4291 75.2965 30.5901 75.9737 28.1432 75.9737C26.6197 75.9737 25.2809 75.6967 24.1267 75.1427C22.9725 74.5733 22.0799 73.7884 21.449 72.7881C20.818 71.7878 20.5026 70.6644 20.5026 69.4179C20.5026 68.156 20.8103 67.0326 21.4259 66.0477C22.0569 65.0474 22.911 64.2703 23.9882 63.7163C25.0808 63.1623 26.3042 62.8853 27.6585 62.8853C28.9358 62.8853 30.0976 63.1392 31.1441 63.647C32.206 64.1549 33.0447 64.9012 33.6602 65.8861C34.2912 66.871 34.6066 68.0483 34.6066 69.4179ZM27.7046 66.4401C27.166 66.4401 26.7197 66.5863 26.3658 66.8787C26.0119 67.1711 25.781 67.5866 25.6733 68.1252H29.736C29.6283 67.602 29.3974 67.1942 29.0435 66.9018C28.6896 66.594 28.2433 66.4401 27.7046 66.4401Z" fill="white"/>
<path d="M7.08667 59.5847H12.5344V71.5189H19.8288V75.7432H7.08667V59.5847Z" fill="white"/>
</svg>
