<svg width="103" height="113" viewBox="0 0 103 113" fill="none" xmlns="http://www.w3.org/2000/svg">
<path d="M11.5847 61.2327C14.5937 61.2329 17.0555 63.7428 17.0555 66.8674C17.0554 69.992 14.5937 72.502 11.5847 72.5022C8.57568 72.5022 6.11313 69.9921 6.11307 66.8674C6.11307 63.7427 8.57565 61.2327 11.5847 61.2327Z" fill="#08286E" stroke="black"/>
<path d="M11.6441 74.9744C16.0839 74.9744 19.6832 78.5736 19.6832 83.0134V96.0593H3.60507V83.0134C3.60507 78.5736 7.20432 74.9744 11.6441 74.9744Z" fill="#08286E" stroke="black"/>
<rect x="6.11307" y="96.0776" width="10.9427" height="16.4224" fill="#08286E" stroke="black"/>
<circle cx="47.4602" cy="51.8469" r="7.56953" fill="#08286E" stroke="black"/>
<path d="M47.5406 62.353C53.6374 62.353 58.5805 67.2954 58.5807 73.3921V90.4038H36.5016V73.3921C36.5018 67.2955 41.444 62.3532 47.5406 62.353Z" fill="#08286E" stroke="black"/>
<rect x="39.8907" y="90.1121" width="15.1391" height="21.9175" fill="#08286E" stroke="black"/>
<path d="M88.6588 28.0686C93.8829 28.0686 98.1177 32.3035 98.1178 37.5276C98.1178 42.7517 93.8829 46.9866 88.6588 46.9866C83.4347 46.9865 79.1998 42.7517 79.1998 37.5276C79.1999 32.3036 83.4348 28.0687 88.6588 28.0686Z" fill="#08286E" stroke="black"/>
<path d="M88.7581 50.3772C96.3473 50.3772 102.5 56.5293 102.5 64.1184V85.2297H75.0169V64.1184C75.0171 56.5294 81.1692 50.3774 88.7581 50.3772Z" fill="#08286E" stroke="black"/>
<rect x="79.1998" y="84.6365" width="18.9182" height="27.2838" fill="#08286E" stroke="black"/>
<path d="M45.648 26.0826C45.648 30.7165 44.2375 35.2406 41.6041 39.0535C38.9707 42.8663 35.2391 45.7873 30.9054 47.428C26.5717 49.0688 21.8413 49.3516 17.343 48.2388C12.8447 47.126 8.79173 44.6703 5.72284 41.1983C2.65396 37.7263 0.714582 33.4025 0.162561 28.8016C-0.38946 24.2007 0.472024 19.5407 2.63248 15.4413C4.79293 11.3419 8.15 7.99718 12.2574 5.85186C16.3647 3.70655 21.0278 2.86227 25.6266 3.43126L24.5578 12.0698C21.7128 11.7178 18.8281 12.2401 16.2872 13.5672C13.7462 14.8944 11.6694 16.9635 10.3329 19.4996C8.99638 22.0356 8.46344 24.9184 8.80494 27.7646C9.14644 30.6109 10.3462 33.2858 12.2447 35.4337C14.1432 37.5815 16.6505 39.1007 19.4333 39.7891C22.2161 40.4775 25.1425 40.3026 27.8234 39.2875C30.5044 38.2725 32.8128 36.4655 34.442 34.1068C36.0711 31.748 36.9436 28.9493 36.9436 26.0826H45.648Z" fill="#08286E"/>
<path d="M34.741 7.86819L22.9388 14.6822L22.9388 1.05414L34.741 7.86819Z" fill="#08286E"/>
<path d="M34.1224 27.9256V29.7456H28.1717V22.5884H33.9894V24.4083H30.5438V25.2468H33.5702V26.9849H30.5438V27.9256H34.1224Z" fill="#08286E"/>
<path d="M25.0476 25.9727H27.1436V28.9992C26.721 29.2923 26.2302 29.5172 25.6713 29.674C25.1123 29.8308 24.5636 29.9092 24.0251 29.9092C23.2617 29.9092 22.5767 29.7524 21.97 29.4388C21.3633 29.1185 20.8862 28.6754 20.5386 28.1096C20.1978 27.5371 20.0273 26.8895 20.0273 26.167C20.0273 25.4444 20.1978 24.8003 20.5386 24.2345C20.8862 23.662 21.3668 23.2189 21.9802 22.9054C22.6005 22.585 23.2992 22.4248 24.0762 22.4248C24.7783 22.4248 25.4054 22.5441 25.9576 22.7827C26.5165 23.0144 26.98 23.3552 27.3481 23.8051L25.8042 25.165C25.3543 24.6401 24.8192 24.3777 24.1989 24.3777C23.6673 24.3777 23.2447 24.5379 22.9311 24.8582C22.6176 25.1786 22.4608 25.6149 22.4608 26.167C22.4608 26.7055 22.6141 27.1383 22.9209 27.4655C23.2344 27.7927 23.6502 27.9563 24.1683 27.9563C24.475 27.9563 24.7681 27.8983 25.0476 27.7825V25.9727Z" fill="#08286E"/>
<path d="M17.053 28.4982H14.3333L13.8528 29.7456H11.3989L14.5276 22.5884H16.8997L20.0284 29.7456H17.5336L17.053 28.4982ZM16.3885 26.76L15.6932 24.9605L14.9979 26.76H16.3885Z" fill="#08286E"/>
<rect x="32.6989" y="12.1143" width="16.2626" height="4.34744" fill="#08286E"/>
<rect x="38.254" y="5.99585" width="5.1525" height="16.5847" fill="#08286E"/>
</svg>
