<svg width="135" height="31" viewBox="0 0 135 31" fill="none" xmlns="http://www.w3.org/2000/svg">
<path d="M103.811 30.072V0.671997H118.301C121.577 0.671997 124.461 1.274 126.953 2.478C129.445 3.654 131.391 5.334 132.791 7.518C134.191 9.702 134.891 12.306 134.891 15.33C134.891 18.382 134.191 21.014 132.791 23.226C131.391 25.41 129.445 27.104 126.953 28.308C124.461 29.484 121.577 30.072 118.301 30.072H103.811ZM113.723 22.344H117.881C119.281 22.344 120.499 22.078 121.535 21.546C122.599 21.014 123.425 20.23 124.013 19.194C124.601 18.13 124.895 16.842 124.895 15.33C124.895 13.846 124.601 12.586 124.013 11.55C123.425 10.514 122.599 9.73 121.535 9.198C120.499 8.666 119.281 8.4 117.881 8.4H113.723V22.344Z" fill="black"/>
<path d="M89.127 30.072V0.671997H99.039V30.072H89.127Z" fill="black"/>
<path d="M72.0937 30.744C69.7137 30.744 67.5157 30.38 65.4997 29.652C63.5117 28.896 61.7757 27.832 60.2917 26.46C58.8357 25.088 57.7017 23.464 56.8897 21.588C56.0777 19.712 55.6717 17.64 55.6717 15.372C55.6717 13.104 56.0777 11.032 56.8897 9.156C57.7017 7.28 58.8497 5.656 60.3337 4.284C61.8177 2.912 63.5677 1.862 65.5837 1.134C67.6277 0.378 69.8677 0 72.3037 0C75.2157 0 77.8057 0.489999 80.0737 1.47C82.3697 2.45 84.2597 3.85 85.7437 5.67L79.4017 11.256C78.4777 10.192 77.4697 9.394 76.3777 8.862C75.3137 8.302 74.1237 8.022 72.8077 8.022C71.7157 8.022 70.7217 8.19 69.8257 8.526C68.9577 8.862 68.2157 9.352 67.5997 9.996C66.9837 10.64 66.5077 11.41 66.1717 12.306C65.8357 13.202 65.6677 14.224 65.6677 15.372C65.6677 16.464 65.8357 17.472 66.1717 18.396C66.5077 19.292 66.9837 20.062 67.5997 20.706C68.2157 21.35 68.9437 21.854 69.7837 22.218C70.6517 22.554 71.6177 22.722 72.6817 22.722C73.8017 22.722 74.8937 22.54 75.9577 22.176C77.0217 21.784 78.1557 21.126 79.3597 20.202L84.9037 27.006C83.1117 28.21 81.0677 29.134 78.7717 29.778C76.4757 30.422 74.2497 30.744 72.0937 30.744ZM76.2937 25.746V14.574H84.9037V27.006L76.2937 25.746Z" fill="black"/>
<path d="M39.9784 21.504V14.364H52.5784V21.504H39.9784Z" fill="black"/>
<path d="M21.0676 30.072V8.358H12.4576V0.671997H39.5896V8.358H30.9796V30.072H21.0676Z" fill="black"/>
<path d="M0 30.072V0.671997H9.912V30.072H0Z" fill="black"/>
</svg>
