<svg width="135" height="31" viewBox="0 0 135 31" fill="none" xmlns="http://www.w3.org/2000/svg">
<path d="M103.811 0.671875H118.301C121.577 0.671875 124.461 1.27388 126.953 2.47788C129.473 3.65388 131.419 5.34788 132.791 7.55988C134.191 9.77188 134.891 12.3759 134.891 15.3719C134.891 18.3679 134.191 20.9719 132.791 23.1839C131.419 25.3959 129.473 27.1039 126.953 28.3079C124.461 29.4839 121.577 30.0719 118.301 30.0719H103.811V0.671875ZM117.881 22.3439C120.009 22.3439 121.703 21.7419 122.963 20.5379C124.251 19.3059 124.895 17.5839 124.895 15.3719C124.895 13.1599 124.251 11.4519 122.963 10.2479C121.703 9.01588 120.009 8.39988 117.881 8.39988H113.723V22.3439H117.881Z" fill="white"/>
<path d="M89.127 0.671875H99.039V30.0719H89.127V0.671875Z" fill="white"/>
<path d="M76.2937 14.574H84.9037V27.006C83.1677 28.21 81.1517 29.134 78.8557 29.778C76.5597 30.422 74.3057 30.744 72.0937 30.744C68.9577 30.744 66.1437 30.1 63.6517 28.812C61.1597 27.496 59.1997 25.676 57.7717 23.352C56.3717 21 55.6717 18.34 55.6717 15.372C55.6717 12.404 56.3717 9.758 57.7717 7.434C59.1997 5.082 61.1737 3.262 63.6937 1.974C66.2417 0.657999 69.1117 0 72.3037 0C75.1877 0 77.7637 0.489999 80.0317 1.47C82.3277 2.422 84.2317 3.822 85.7437 5.67L79.4017 11.256C77.5537 9.1 75.3557 8.022 72.8077 8.022C70.6237 8.022 68.8877 8.68 67.5997 9.996C66.3117 11.312 65.6677 13.104 65.6677 15.372C65.6677 17.584 66.2977 19.362 67.5577 20.706C68.8457 22.05 70.5537 22.722 72.6817 22.722C73.9417 22.722 75.1457 22.484 76.2937 22.008V14.574Z" fill="white"/>
<path d="M39.9784 14.3638H52.5784V21.5038H39.9784V14.3638Z" fill="white"/>
<path d="M21.0676 8.35788H12.4576V0.671875H39.5896V8.35788H30.9796V30.0719H21.0676V8.35788Z" fill="white"/>
<path d="M0 0.671875H9.912V30.0719H0V0.671875Z" fill="white"/>
</svg>
